<?xml version="1.0" encoding="UTF-8"?>
<svg width="113px" height="113px" viewBox="0 0 113 113" version="1.1" xmlns="http://www.w3.org/2000/svg" xmlns:xlink="http://www.w3.org/1999/xlink">
    <!-- Generator: Sketch 57 (83077) - https://sketch.com -->
    <title>编组 6</title>
    <desc>Created with Sketch.</desc>
    <g id="Page-1" stroke="none" stroke-width="1" fill="none" fill-rule="evenodd">        
        <g id="画板" transform="translate(-291.000000, -298.000000)">
            <g id="编组-4" transform="translate(278.000000, 285.000000)">
                <g id="编组-2">
                    <g id="编组-6" transform="translate(0.610269, 0.610269)">
                        <g id="编组-5" transform="translate(69.000000, 69.000000) rotate(31.000000) translate(-69.000000, -69.000000) translate(19.000000, 19.000000)">
                            <circle id="Oval-2" stroke="#0025FF" stroke-width="6" fill="#FFFFFF" cx="50" cy="50" r="53"></circle>
                            <circle id="Oval" fill="#0025FF" cx="50" cy="50" r="4"></circle>
                             <polygon id="Rectangle" fill="#0025FF" points="49.75 1 50.75 1 51.5 49.75 49 49.75">
                               <animateTransform attributeType="XML" attributeName="transform" begin="0s" dur="60s" type="rotate" from="0 50 50" to="360 50 50" repeatCount="indefinite" />
                            </polygon>
                        </g>
                        <g id="编组" transform="translate(21.000000, 21.000000)" fill="#0025FF">
                            <rect id="Rectangle" x="47.25" y="0" width="2" height="5.5"></rect>
                            <rect id="Rectangle" transform="translate(71.500000, 7.729819) rotate(30.000000) translate(-71.500000, -7.729819) " x="70.5" y="6.22981872" width="2" height="3"></rect>
                            <rect id="Rectangle" transform="translate(88.520181, 24.750000) rotate(60.000000) translate(-88.520181, -24.750000) " x="87.5201813" y="23.25" width="2" height="3"></rect>
                            <rect id="Rectangle" transform="translate(93.500000, 48.000000) rotate(90.000000) translate(-93.500000, -48.000000) " x="92.5" y="45.25" width="2" height="5.5"></rect>
                            <rect id="Rectangle" transform="translate(88.520181, 71.250000) rotate(120.000000) translate(-88.520181, -71.250000) " x="87.5201813" y="69.75" width="2" height="3"></rect>
                            <rect id="Rectangle" transform="translate(71.500000, 88.270181) rotate(150.000000) translate(-71.500000, -88.270181) " x="70.5" y="86.7701813" width="2" height="3"></rect>
                            <polygon id="Rectangle" transform="translate(48.250000, 93.250000) rotate(180.000000) translate(-48.250000, -93.250000) " points="47.25 90.5 49.25 90.5 49.25 96 47.25 96"></polygon>
                            <rect id="Rectangle" transform="translate(25.000000, 88.270181) rotate(210.000000) translate(-25.000000, -88.270181) " x="24" y="86.7701813" width="2" height="3"></rect>
                            <rect id="Rectangle" transform="translate(7.979819, 71.250000) rotate(240.000000) translate(-7.979819, -71.250000) " x="6.97981872" y="69.75" width="2" height="3"></rect>
                            <polygon id="Rectangle" transform="translate(3.000000, 48.000000) rotate(270.000000) translate(-3.000000, -48.000000) " points="2 45.25 4 45.25 4 50.75 2 50.75"></polygon>
                            <rect id="Rectangle" transform="translate(7.979819, 24.750000) rotate(300.000000) translate(-7.979819, -24.750000) " x="6.97981872" y="23.25" width="2" height="3"></rect>
                            <rect id="Rectangle" transform="translate(25.000000, 7.729819) rotate(330.000000) translate(-25.000000, -7.729819) " x="24" y="6.22981872" width="2" height="3"></rect>
                        </g>
                        <g id="编组-3" transform="translate(69.000000, 69.000000) rotate(31.000000) translate(-69.000000, -69.000000) translate(19.000000, 19.000000)">
                            <g id="编组-2">
                                <circle id="Oval-2" stroke="#0025FF" stroke-width="6" fill-opacity="0" fill="#FFFFFF" cx="50" cy="50" r="53"></circle>
                                <circle id="Oval" fill="#0025FF" cx="50" cy="50" r="4"></circle>
                            </g>
                            <polygon id="Rectangle" fill="#0025FF" points="49.75 1 50.75 1 51.5 49.75 49 49.75">
                               <animateTransform attributeType="XML" attributeName="transform" begin="0s" dur="30s" type="rotate" from="0 50 50" to="360 50 50" repeatCount="indefinite" />
                            </polygon>
                        </g>
                    </g>
                </g>
            </g>
        </g>
    </g>
</svg>