<?xml version="1.0" encoding="UTF-8"?>
<svg width="23px" height="19px" viewBox="0 0 23 19" version="1.1" xmlns="http://www.w3.org/2000/svg" xmlns:xlink="http://www.w3.org/1999/xlink">
    <!-- Generator: Sketch 57 (83077) - https://sketch.com -->
    <title>Mask</title>
    <desc>Created with Sketch.</desc>
    <g id="Page-1" stroke="none" stroke-width="1" fill="none" fill-rule="evenodd">
        <g id="工作台-周报-3-1" transform="translate(-40.000000, -352.000000)" fill="#FFFFFF">
            <g id="Group-2" transform="translate(30.000000, 342.000000)">
                <path d="M33,10 L33,14.2061069 C31.5944126,15.0279939 30.7963368,16.1278557 30.6057487,17.5057252 L33,17.5057252 L33,29 L23.3157895,29 L23.3157895,23.7423664 C23.3157895,20.9866274 23.6433579,18.7264719 24.2985046,16.9618321 C24.9536512,15.1971922 26.0673839,13.6984794 27.6397359,12.4656489 C29.2120879,11.2328183 30.9988247,10.4109435 33,10 Z M19.6842105,10 L19.6842105,14.2061069 C18.2786231,15.0279939 17.4805473,16.1278557 17.2899592,17.5057252 L19.6842105,17.5057252 L19.6842105,29 L10,29 L10,23.7423664 C10,20.9866274 10.3275684,18.7264719 10.9827151,16.9618321 C11.6378618,15.1971922 12.7575502,13.6984794 14.3418139,12.4656489 C15.9260777,11.2328183 17.7068588,10.4109435 19.6842105,10 Z" id="Mask"></path>
            </g>
        </g>
    </g>
</svg>