<?xml version="1.0" encoding="UTF-8"?>
<svg width="23px" height="19px" viewBox="0 0 23 19" version="1.1" xmlns="http://www.w3.org/2000/svg" xmlns:xlink="http://www.w3.org/1999/xlink">
    <!-- Generator: Sketch 57 (83077) - https://sketch.com -->
    <title>Shape</title>
    <desc>Created with Sketch.</desc>
    <g id="Page-1" stroke="none" stroke-width="1" fill="none" fill-rule="evenodd">
        <g id="工作台-周报-3-1" transform="translate(-316.000000, -383.000000)" fill="#FFFFFF">
            <g id="Group-2" transform="translate(30.000000, 342.000000)">
                <path d="M295.684211,41 L295.684211,46.2576336 C295.684211,49.0133726 295.356642,51.2735281 294.701495,53.0381679 C294.046349,54.8028078 292.932616,56.3015206 291.360264,57.5343511 C289.787912,58.7671817 288.001175,59.5890565 286,60 L286,55.7938931 C287.405587,54.9720061 288.203663,53.8721443 288.394251,52.4942748 L286,52.4942748 L286,41 L295.684211,41 Z M309,41 L309,46.2576336 C309,49.0133726 308.672432,51.2735281 308.017285,53.0381679 C307.362138,54.8028078 306.24245,56.3015206 304.658186,57.5343511 C303.073922,58.7671817 301.293141,59.5890565 299.315789,60 L299.315789,55.7938931 C300.721377,54.9720061 301.519453,53.8721443 301.710041,52.4942748 L299.315789,52.4942748 L299.315789,41 L309,41 Z" id="Shape"></path>
            </g>
        </g>
    </g>
</svg>