<?xml version="1.0" encoding="UTF-8"?>
<svg width="580px" height="558px" viewBox="0 0 580 558" version="1.1" xmlns="http://www.w3.org/2000/svg" xmlns:xlink="http://www.w3.org/1999/xlink">
    <!-- Generator: Sketch 57 (83077) - https://sketch.com -->
    <title>编组</title>
    <desc>Created with Sketch.</desc>
    <g id="Page-1" stroke="none" stroke-width="1" fill="none" fill-rule="evenodd">
        <g id="画板" transform="translate(-99.000000, -105.000000)">
            <g id="编组" transform="translate(99.000000, 105.000000)">
                <g id="Group-7" transform="translate(357.000000, 0.000000)">
                    <g id="Group-8">
                        <path d="M26,12 C18.2680135,12 12,18.2680135 12,26 L12,224 C12,231.731986 18.2680135,238 26,238 L207,238 C214.731986,238 221,231.731986 221,224 L221,26 C221,18.2680135 214.731986,12 207,12 L26,12 Z" id="Rectangle" stroke="#0025FF" stroke-width="4" fill="#0025FF"></path>
                        <path d="M16,2 C8.2680135,2 2,8.2680135 2,16 L2,214 C2,221.731986 8.2680135,228 16,228 L197,228 C204.731986,228 211,221.731986 211,214 L211,16 C211,8.2680135 204.731986,2 197,2 L16,2 Z" id="Rectangle" stroke="#0025FF" stroke-width="4" fill="#FFFFFF"></path>
                        <text id="日" font-family="PingFangSC-Semibold, PingFang SC" font-size="16" font-weight="500" letter-spacing="-0.359999895" fill="#0025FF">
                            <tspan x="14" y="64">日</tspan>
                        </text>
                        <text id="一" font-family="PingFangSC-Semibold, PingFang SC" font-size="16" font-weight="500" letter-spacing="-0.359999895" fill="#0025FF">
                            <tspan x="42" y="64">一</tspan>
                        </text>
                        <text id="二" font-family="PingFangSC-Semibold, PingFang SC" font-size="16" font-weight="500" letter-spacing="-0.359999895" fill="#0025FF">
                            <tspan x="70" y="64">二</tspan>
                        </text>
                        <text id="三" font-family="PingFangSC-Semibold, PingFang SC" font-size="16" font-weight="500" letter-spacing="-0.359999895" fill="#0025FF">
                            <tspan x="97" y="64">三</tspan>
                        </text>
                        <text id="四" font-family="PingFangSC-Semibold, PingFang SC" font-size="16" font-weight="500" letter-spacing="-0.359999895" fill="#0025FF">
                            <tspan x="125" y="64">四</tspan>
                        </text>
                        <text id="五" font-family="PingFangSC-Semibold, PingFang SC" font-size="16" font-weight="500" letter-spacing="-0.359999895" fill="#0025FF">
                            <tspan x="153" y="64">五</tspan>
                        </text>
                        <text id="六" font-family="PingFangSC-Semibold, PingFang SC" font-size="16" font-weight="500" letter-spacing="-0.359999895" fill="#0025FF">
                            <tspan x="181" y="64">六</tspan>
                        </text>
                        <text id="日" font-family="PingFangSC-Semibold, PingFang SC" font-size="16" font-weight="500" letter-spacing="-0.359999895" fill="#0025FF">
                            <tspan x="14" y="64">日</tspan>
                        </text>
                        <text id="一" font-family="PingFangSC-Semibold, PingFang SC" font-size="16" font-weight="500" letter-spacing="-0.359999895" fill="#0025FF">
                            <tspan x="42" y="64">一</tspan>
                        </text>
                        <text id="二" font-family="PingFangSC-Semibold, PingFang SC" font-size="16" font-weight="500" letter-spacing="-0.359999895" fill="#0025FF">
                            <tspan x="70" y="64">二</tspan>
                        </text>
                        <text id="三" font-family="PingFangSC-Semibold, PingFang SC" font-size="16" font-weight="500" letter-spacing="-0.359999895" fill="#0025FF">
                            <tspan x="97" y="64">三</tspan>
                        </text>
                        <text id="四" font-family="PingFangSC-Semibold, PingFang SC" font-size="16" font-weight="500" letter-spacing="-0.359999895" fill="#0025FF">
                            <tspan x="125" y="64">四</tspan>
                        </text>
                        <text id="五" font-family="PingFangSC-Semibold, PingFang SC" font-size="16" font-weight="500" letter-spacing="-0.359999895" fill="#0025FF">
                            <tspan x="153" y="64">五</tspan>
                        </text>
                        <text id="六" font-family="PingFangSC-Semibold, PingFang SC" font-size="16" font-weight="500" letter-spacing="-0.359999895" fill="#0025FF">
                            <tspan x="181" y="64">六</tspan>
                        </text>
                        <path d="M2,38 L211,38 L211,16 C211,8.2680135 204.731986,2 197,2 L16,2 C8.2680135,2 2,8.2680135 2,16 L2,38 Z" id="Rectangle" stroke="#0025FF" stroke-width="4" fill="#0025FF"></path>
                        <text id="1" font-family="PingFangSC-Semibold, PingFang SC" font-size="16" font-weight="500" letter-spacing="-0.359999895" fill="#0025FF">
                            <tspan x="19.3999999" y="91">1</tspan>
                        </text>
                        <text id="2" font-family="PingFangSC-Semibold, PingFang SC" font-size="16" font-weight="500" letter-spacing="-0.359999895" fill="#0025FF">
                            <tspan x="44.3799999" y="91">2</tspan>
                        </text>
                        <text id="3" font-family="PingFangSC-Semibold, PingFang SC" font-size="16" font-weight="500" letter-spacing="-0.359999895" fill="#0025FF">
                            <tspan x="72.3799999" y="91">3</tspan>
                        </text>
                        <text id="4" font-family="PingFangSC-Semibold, PingFang SC" font-size="16" font-weight="500" letter-spacing="-0.359999895" fill="#0025FF">
                            <tspan x="100.38" y="91">4</tspan>
                        </text>
                        <text id="5" font-family="PingFangSC-Semibold, PingFang SC" font-size="16" font-weight="500" letter-spacing="-0.359999895" fill="#0025FF">
                            <tspan x="128.38" y="91">5</tspan>
                        </text>
                        <text id="6" font-family="PingFangSC-Semibold, PingFang SC" font-size="16" font-weight="500" letter-spacing="-0.359999895" fill="#0025FF">
                            <tspan x="156.38" y="91">6</tspan>
                        </text>
                        <text id="7" font-family="PingFangSC-Semibold, PingFang SC" font-size="16" font-weight="500" letter-spacing="-0.359999895" fill="#0025FF">
                            <tspan x="184.256" y="91">7</tspan>
                        </text>
                        <text id="8" font-family="PingFangSC-Semibold, PingFang SC" font-size="16" font-weight="500" letter-spacing="-0.359999895" fill="#0025FF">
                            <tspan x="17.8799999" y="117">8</tspan>
                        </text>
                        <text id="9" font-family="PingFangSC-Semibold, PingFang SC" font-size="16" font-weight="500" letter-spacing="-0.359999895" fill="#0025FF">
                            <tspan x="44.3799999" y="117">9</tspan>
                        </text>
                        <text id="10" font-family="PingFangSC-Semibold, PingFang SC" font-size="16" font-weight="500" letter-spacing="-0.359999895" fill="#0025FF">
                            <tspan x="69.2799999" y="117">10</tspan>
                        </text>
                        <text id="11" font-family="PingFangSC-Semibold, PingFang SC" font-size="16" font-weight="500" letter-spacing="-0.359999895" fill="#0025FF">
                            <tspan x="98.7999999" y="117">11</tspan>
                        </text>
                        <text id="12" font-family="PingFangSC-Semibold, PingFang SC" font-size="16" font-weight="500" letter-spacing="-0.359999895" fill="#0025FF">
                            <tspan x="125.28" y="117">12</tspan>
                        </text>
                        <text id="13" font-family="PingFangSC-Semibold, PingFang SC" font-size="16" font-weight="500" letter-spacing="-0.359999895" fill="#0025FF">
                            <tspan x="153.28" y="117">13</tspan>
                        </text>
                        <text id="14" font-family="PingFangSC-Semibold, PingFang SC" font-size="16" font-weight="500" letter-spacing="-0.359999895" fill="#0025FF">
                            <tspan x="180.78" y="117">14</tspan>
                        </text>
                        <text id="15" font-family="PingFangSC-Semibold, PingFang SC" font-size="16" font-weight="500" letter-spacing="-0.359999895" fill="#0025FF">
                            <tspan x="14.7799999" y="146">15</tspan>
                        </text>
                        <text id="16" font-family="PingFangSC-Semibold, PingFang SC" font-size="16" font-weight="500" letter-spacing="-0.359999895" fill="#0025FF">
                            <tspan x="41.2799999" y="146">16</tspan>
                        </text>
                        <text id="17" font-family="PingFangSC-Semibold, PingFang SC" font-size="16" font-weight="500" letter-spacing="-0.359999895" fill="#0025FF">
                            <tspan x="69.6559999" y="146">17</tspan>
                        </text>
                        <text id="18" font-family="PingFangSC-Semibold, PingFang SC" font-size="16" font-weight="500" letter-spacing="-0.359999895" fill="#0025FF">
                            <tspan x="97.2799999" y="146">18</tspan>
                        </text>
                        <text id="19" font-family="PingFangSC-Semibold, PingFang SC" font-size="16" font-weight="500" letter-spacing="-0.359999895" fill="#0025FF">
                            <tspan x="125.28" y="146">19</tspan>
                        </text>
                        <text id="20" font-family="PingFangSC-Semibold, PingFang SC" font-size="16" font-weight="500" letter-spacing="-0.359999895" fill="#0025FF">
                            <tspan x="151.76" y="146">20</tspan>
                        </text>
                        <text id="21" font-family="PingFangSC-Semibold, PingFang SC" font-size="16" font-weight="500" letter-spacing="-0.359999895" fill="#0025FF">
                            <tspan x="180.78" y="146">21</tspan>
                        </text>
                        <text id="22" font-family="PingFangSC-Semibold, PingFang SC" font-size="16" font-weight="500" letter-spacing="-0.359999895" fill="#0025FF">
                            <tspan x="13.2599999" y="175">22</tspan>
                        </text>
                        <text id="23" font-family="PingFangSC-Semibold, PingFang SC" font-size="16" font-weight="500" letter-spacing="-0.359999895" fill="#0025FF">
                            <tspan x="39.7599999" y="175">23</tspan>
                        </text>
                        <text id="24" font-family="PingFangSC-Semibold, PingFang SC" font-size="16" font-weight="500" letter-spacing="-0.359999895" fill="#0025FF">
                            <tspan x="67.7599999" y="175">24</tspan>
                        </text>
                        <text id="25" font-family="PingFangSC-Semibold, PingFang SC" font-size="16" font-weight="500" letter-spacing="-0.359999895" fill="#0025FF">
                            <tspan x="95.7599999" y="175">25</tspan>
                        </text>
                        <text id="26" font-family="PingFangSC-Semibold, PingFang SC" font-size="16" font-weight="500" letter-spacing="-0.359999895" fill="#0025FF">
                            <tspan x="123.76" y="175">26</tspan>
                        </text>
                        <text id="27" font-family="PingFangSC-Semibold, PingFang SC" font-size="16" font-weight="500" letter-spacing="-0.359999895" fill="#0025FF">
                            <tspan x="152.136" y="175">27</tspan>
                        </text>
                        <text id="28" font-family="PingFangSC-Semibold, PingFang SC" font-size="16" font-weight="500" letter-spacing="-0.359999895" fill="#0025FF">
                            <tspan x="179.26" y="175">28</tspan>
                        </text>
                        <text id="29" font-family="PingFangSC-Semibold, PingFang SC" font-size="16" font-weight="500" letter-spacing="-0.359999895" fill="#0025FF">
                            <tspan x="13.2599999" y="204">29</tspan>
                        </text>
                        <text id="30" font-family="PingFangSC-Semibold, PingFang SC" font-size="16" font-weight="500" letter-spacing="-0.359999895" fill="#0025FF">
                            <tspan x="39.7599999" y="204">30</tspan>
                        </text>
                        <text id="31" font-family="PingFangSC-Semibold, PingFang SC" font-size="16" font-weight="500" letter-spacing="-0.359999895" fill="#0025FF">
                            <tspan x="69.2799999" y="204">31</tspan>
                        </text>
                        <text id="1" opacity="0.200000003" font-family="PingFangSC-Semibold, PingFang SC" font-size="16" font-weight="500" letter-spacing="-0.359999895" fill="#0025FF">
                            <tspan x="101.9" y="204">1</tspan>
                        </text>
                        <text id="2" opacity="0.200000003" font-family="PingFangSC-Semibold, PingFang SC" font-size="16" font-weight="500" letter-spacing="-0.359999895" fill="#0025FF">
                            <tspan x="128.38" y="204">2</tspan>
                        </text>
                        <text id="3" opacity="0.200000003" font-family="PingFangSC-Semibold, PingFang SC" font-size="16" font-weight="500" letter-spacing="-0.359999895" fill="#0025FF">
                            <tspan x="156.38" y="204">3</tspan>
                        </text>
                        <text id="4" opacity="0.200000003" font-family="PingFangSC-Semibold, PingFang SC" font-size="16" font-weight="500" letter-spacing="-0.359999895" fill="#0025FF">
                            <tspan x="183.88" y="204">4</tspan>
                        </text>
                        <text id="2019年7月2日" font-family="PingFangSC-Semibold, PingFang SC" font-size="16" font-weight="500" letter-spacing="-0.359999895" fill="#FFFFFF">
                            <tspan x="8" y="29">2019年7月2日</tspan>
                        </text>
                        <text id="星期二" font-family="PingFangSC-Semibold, PingFang SC" font-size="16" font-weight="500" letter-spacing="-0.359999895" fill="#FFFFFF">
                            <tspan x="156" y="29">星期二</tspan>
                        </text>
                        <path d="M43.9974025,76.7348633 C26.3988006,94.9668339 61.1221822,101.888204 58.7249416,83.4995117 C57.9034518,77.198049 52.6844086,77.0618785 48.4388088,76" id="Path-39" stroke="#0025FF" stroke-width="2" stroke-linecap="round"></path>
                        <path d="M71.9974025,76.7348633 C54.3988006,94.9668339 89.1221822,101.888204 86.7249416,83.4995117 C85.9034518,77.198049 80.6844086,77.0618785 76.4388088,76" id="Path-39-Copy" stroke="#0025FF" stroke-width="2" stroke-linecap="round"></path>
                        <path d="M99.9974025,76.7348633 C82.3988006,94.9668339 117.122182,101.888204 114.724942,83.4995117 C113.903452,77.198049 108.684409,77.0618785 104.438809,76" id="Path-39-Copy-2" stroke="#0025FF" stroke-width="2" stroke-linecap="round"></path>
                        <path d="M155.997403,76.7348633 C138.398801,94.9668339 173.122182,101.888204 170.724942,83.4995117 C169.903452,77.198049 164.684409,77.0618785 160.438809,76" id="Path-39-Copy-3" stroke="#0025FF" stroke-width="2" stroke-linecap="round"></path>
                    </g>
                </g>
                <polygon id="Rectangle" fill="#0025FF" points="46.5240642 403 533.475936 403 580 558 1.15537704e-13 558"></polygon>
                <g id="Group-9" transform="translate(37.000000, 363.000000)">
                    <path d="M8.00051689,89 L80.6900293,89 C83.451453,89 85.6900293,91.2385763 85.6900293,94 C85.6900293,94.2047898 85.6774476,94.4093861 85.6523554,94.6126329 L84.9709199,100.132261 L84.9709199,100.132261 L82.6282566,102.907834 L74.8869234,165.612633 C74.5776035,168.118123 72.4491093,170 69.9245972,170 L18.765949,170 C16.2414369,170 14.1129426,168.118123 13.8036228,165.612633 L5.94647552,101.96974 L5.94647552,101.96974 L3.6361424,99.4560414 L3.03819072,94.6126329 C2.69984294,91.8720158 4.64726696,89.3760216 7.38788403,89.0376738 C7.59113076,89.0125816 7.79572711,89 8.00051689,89 Z" id="Rectangle" fill="#CA8484"></path>
                    <g id="Group-6">
                        <path d="M26.9194464,84.4451149 C36.0581478,84.4451149 42.8547856,59.1655885 42.8547856,36.7980561 C42.8547856,14.4305238 36.0581478,3.44511494 26.9194464,3.44511494 C17.780745,3.44511494 10.3723637,9.20167782 10.3723637,31.5692102 C10.3723637,53.9367426 17.780745,84.4451149 26.9194464,84.4451149 Z" id="Oval" fill="#5BD4A3" transform="translate(26.613575, 43.945115) rotate(-15.000000) translate(-26.613575, -43.945115) "></path>
                        <path d="M20,24.1132813 C31.0690104,53.3269944 37.5029297,74.9448759 39.3017578,88.9669255" id="Path-38" stroke="#000000" stroke-width="2" stroke-linecap="round"></path>
                    </g>
                    <g id="Group-6" transform="translate(56.500000, 44.500000) scale(-1, 1) translate(-56.500000, -44.500000) translate(30.000000, 0.000000)">
                        <path d="M26.9194464,84.4451149 C36.0581478,84.4451149 42.8547856,59.1655885 42.8547856,36.7980561 C42.8547856,14.4305238 36.0581478,3.44511494 26.9194464,3.44511494 C17.780745,3.44511494 10.3723637,9.20167782 10.3723637,31.5692102 C10.3723637,53.9367426 17.780745,84.4451149 26.9194464,84.4451149 Z" id="Oval" fill="#72FFC6" transform="translate(26.613575, 43.945115) rotate(-15.000000) translate(-26.613575, -43.945115) "></path>
                        <path d="M20,24.1132813 C31.0690104,53.3269944 37.5029297,74.9448759 39.3017578,88.9669255" id="Path-38" stroke="#000000" stroke-width="2" stroke-linecap="round"></path>
                    </g>
                </g>
                <g id="Group-4" transform="translate(166.000000, 450.000000)">
                    <path d="M34.6008565,0 L137.031299,0 C142.554146,-1.01453063e-15 147.031299,4.4771525 147.031299,10 C147.031299,10.3078191 147.017086,10.6154741 146.988705,10.9219821 L138.840557,98.9219821 C138.364295,104.065611 134.048781,108 128.88315,108 L10.1564121,108 C4.63356455,108 0.156412051,103.522847 0.156412051,98 C0.156412051,97.09546 0.279138371,96.1951019 0.521232955,95.3235614 L24.9656774,7.32356136 C26.1679545,2.99536371 30.1087785,2.60153819e-15 34.6008565,0 Z" id="Rectangle" fill="#FFFFFF"></path>
                    <path d="" id="Combined-Shape" stroke="#979797"></path>
                    <path d="M148.000661,-9.09494702e-13 L247.063258,-9.09494702e-13 C252.586106,-9.2031978e-13 257.063258,4.4771525 257.063258,10 C257.063258,10.3078191 257.049045,10.6154741 257.020665,10.9219821 L248.872517,98.9219821 C248.396255,104.065611 244.080741,108 238.91511,108 L156.148809,108 C150.983178,108 146.667664,104.065611 146.191402,98.9219821 L138.043254,10.9219821 C137.534058,5.42265821 141.579355,0.551789916 147.078679,0.0425932594 C147.385187,0.0142128875 147.692842,-9.09438156e-13 148.000661,-9.09494702e-13 Z" id="Rectangle" fill="#F2EFD2" transform="translate(197.531629, 54.000000) scale(-1, -1) translate(-197.531629, -54.000000) "></path>
                    <path d="M159.000661,-9.09494702e-13 L258.063258,-9.09494702e-13 C263.586106,-9.2031978e-13 268.063258,4.4771525 268.063258,10 C268.063258,10.3078191 268.049045,10.6154741 268.020665,10.9219821 L259.872517,98.9219821 C259.396255,104.065611 255.080741,108 249.91511,108 L167.148809,108 C161.983178,108 157.667664,104.065611 157.191402,98.9219821 L149.043254,10.9219821 C148.534058,5.42265821 152.579355,0.551789916 158.078679,0.0425932594 C158.385187,0.0142128875 158.692842,-9.09438156e-13 159.000661,-9.09494702e-13 Z" id="Rectangle" fill="#E0DDBD" transform="translate(208.531629, 54.000000) scale(-1, -1) translate(-208.531629, -54.000000) "></path>
                    <path d="M18.2207031,86.5234375 C92.3890298,83.6391519 60.3300032,83.649577 114.380859,84.71875" id="Path-30" stroke="#E0DDC7" stroke-width="6"></path>
                    <path d="M23.4863281,67.2929688 C105.156642,68.746644 72.9845642,70.1902597 120.099609,67.1796875" id="Path-31" stroke="#E0DDC7" stroke-width="6"></path>
                    <path d="M31.0429688,51.1855469 C76.1759552,53.4791235 46.8694719,52.5743512 119.003906,50.9199219" id="Path-32" stroke="#E0DDC7" stroke-width="6"></path>
                    <path d="M36.3105469,35.1523438 C65.1204427,34.9199219 93.9303385,34.6875 122.740234,34.4550781" id="Path-33" stroke="#E0DDC7" stroke-width="6"></path>
                </g>
                <g id="Group-3" transform="translate(95.000000, 139.000000)" stroke="#0025FF">
                    <path d="M14.4526543,251.015723 C24.7713089,275.285848 35.0813358,291.408542 45.3827351,299.383807 C60.834834,311.346703 94.8199334,307.665812 101.873445,307.665812 C106.575785,307.665812 125.598891,306.54554 158.942763,304.304998 L342.334054,307.665812 C366.273243,301.876828 382.090208,263.16283 389.784947,191.523819 C401.327057,84.0653026 331.352509,-7.55754093 192.755166,1.00412444 C30.9183888,11.0013748 -28.5157819,94.3385742 14.4526543,251.015723 Z" id="Path-28" stroke-width="8" fill="#FFFFFF"></path>
                    <path d="M103.505133,149 C89.6880392,204.466667 87.0186347,242.333333 95.4969199,262.6 C103.975205,282.866667 136.54194,295.509101 193.197125,300.527303 L193.197125,319.730661 C137.529995,326.240753 90.0145945,322.663866 50.650924,309 C11.2872535,295.336134 -4.46223311,235.869467 3.40246407,130.6" id="Path-29" stroke-width="8" fill="#FFFFFF"></path>
                    <rect id="Rectangle" stroke-width="6" fill="#0025FF" x="150" y="219" width="59" height="105" rx="10"></rect>
                    <path d="M255.244065,149 C250.314008,178.6 247.84898,201.533333 247.84898,217.8 C247.84898,242.2 260.111726,287.388527 272.727337,294.395349 C278.595559,297.654613 303.582609,311.601566 321.427598,299.028207 C327.704264,294.605746 329.94799,276.787383 333.58848,280.2 C338.714824,285.005464 333.405339,299.145832 335.525042,308.541576 C337.644744,317.937319 363.532754,321.905071 370.127859,320.011151 C380.514259,317.028481 384.225303,308.541576 388.029527,313.18444 C391.833751,317.827304 381.10267,332.395011 363.156032,336.151107 C346.682765,339.598837 322.586827,331.427526 321.427598,331.475723 C275.208907,333.397329 274.417197,331.4 267.068692,331.4 C254.252834,331.4 180.453158,335.380632 165.074128,255.971648 C149.695098,176.562663 153.044242,145.418913 165.074128,102.6" id="Path-29" stroke-width="6.4" fill="#FFFFFF" transform="translate(271.775619, 219.800000) scale(-1, 1) translate(-271.775619, -219.800000) "></path>
                    <path d="M1.80082136,176.283802 C35.1838545,170.65956 66.2901555,174.586833 95.1197242,188.065621" id="Path-37" stroke-width="8"></path>
                    <path d="M291.494867,176.283802 C327.264887,161.149146 359.564682,160.321212 388.394251,173.8" id="Path-37-Copy" stroke-width="8"></path>
                </g>
                <path d="M281.832524,397.816901 C282.462783,398.633803 283.185275,399.161972 284,399.401408 C283.64644,400.401408 283.085356,401.443662 282.316748,402.528169 C281.133091,404.161972 279.964806,404.978873 278.811893,404.978873 C278.381472,404.978873 277.743528,404.84507 276.898058,404.577465 C276.114078,404.309859 275.430016,404.176056 274.845874,404.176056 C274.261731,404.176056 273.6161,404.316901 272.908981,404.598592 C272.171117,404.866197 271.563916,405 271.087379,405 C269.703883,405 268.343447,403.922535 267.006068,401.767606 C265.668689,399.640845 265,397.549296 265,395.492958 C265,393.591549 265.507282,392.035211 266.521845,390.823944 C267.567152,389.612676 268.858414,389.007042 270.395631,389.007042 C270.733819,389.007042 271.110437,389.045775 271.525485,389.123239 C271.940534,389.200704 272.370955,389.34507 272.816748,389.556338 C273.293285,389.795775 273.685275,389.961268 273.992718,390.052817 C274.300162,390.144366 274.53843,390.190141 274.707524,390.190141 C274.907362,390.190141 275.214806,390.147887 275.629854,390.06338 C276.044903,389.978873 276.459951,389.823944 276.875,389.598592 C277.320793,389.373239 277.705097,389.204225 278.027913,389.091549 C278.350728,388.978873 278.68123,388.922535 279.019417,388.922535 C280.095469,388.922535 281.063916,389.190141 281.924757,389.725352 C282.385922,390.007042 282.854773,390.422535 283.331311,390.971831 C282.624191,391.535211 282.109223,392.028169 281.786408,392.450704 C281.186893,393.239437 280.887136,394.098592 280.887136,395.028169 C280.887136,396.056338 281.202265,396.985915 281.832524,397.816901 L281.832524,397.816901 Z M277.197816,387.950704 C276.65979,388.415493 276.16788,388.71831 275.722087,388.859155 C275.568366,388.901408 275.372371,388.940141 275.134102,388.975352 C274.895833,389.010563 274.622977,389.042254 274.315534,389.070423 C274.330906,387.830986 274.684466,386.760563 275.376214,385.859155 C276.067961,384.957746 277.205502,384.338028 278.788835,384 C278.819579,384.140845 278.842638,384.239437 278.85801,384.295775 L278.85801,384.528169 C278.85801,385.035211 278.727346,385.605634 278.466019,386.239437 C278.18932,386.859155 277.766586,387.429577 277.197816,387.950704 L277.197816,387.950704 Z" id="Shape" fill="#FFFFFF" fill-rule="nonzero"></path>
                <g id="Group-5" transform="translate(239.000000, 45.000000)">
                    <path d="M18.8740801,75.0041994 C8.17623467,71.565904 3.72132037,64.6471497 5.50933721,54.2479364 C8.19136247,38.6491164 29.8238237,15.4299666 34.6718373,13.2438901 C39.5198508,11.0578135 66.7178578,2.20005811 73.561594,11.3378674 C80.4053303,20.4756768 86.3014425,30.6726956 89.6419476,43.093403 C91.868951,51.3738746 91.9008736,60.2870538 89.7377154,69.8329404 C78.0808001,80.2868232 70.727467,82.0451605 67.6777161,75.1079525 C63.1030898,64.7021405 52.9246611,58.8884059 48.8102516,65.9453907 C46.067312,70.6500472 36.0885882,73.6696502 18.8740801,75.0041994 Z" id="Path-20" fill="#0025FF" transform="translate(48.230876, 43.271340) rotate(-9.000000) translate(-48.230876, -43.271340) "></path>
                    <path d="M32.3905802,113 C58.938186,102.955494 72.7360364,100.674534 72.4264069,110 C72.1167773,119.325466 71.0155841,135.594769 70.4805517,141.338974 C70.4805517,162.467969 32.3905802,165 32.3905802,141.338974 C32.3905802,132.074921 28.1347492,118.703799 32.3905802,113 Z" id="Path-21" stroke="#0025FF" stroke-width="8" fill="#FFFFFF"></path>
                    <ellipse id="Oval" stroke="#0025FF" stroke-width="5.6" fill="#FFFFFF" cx="16.1666667" cy="85.1071429" rx="10.5434783" ry="12.6160714"></ellipse>
                    <ellipse id="Oval-Copy-2" stroke="#0025FF" stroke-width="5.6" fill="#FFFFFF" cx="82.2391304" cy="85.1071429" rx="10.5434783" ry="12.6160714"></ellipse>
                    <ellipse id="Oval" stroke="#0025FF" stroke-width="8" fill="#FFFFFF" transform="translate(49.000018, 88.737648) rotate(-2.000000) translate(-49.000018, -88.737648) " cx="49.0000183" cy="88.7376484" rx="29.2261031" ry="43.3224543"></ellipse>
                    <ellipse id="Oval" stroke="#0025FF" stroke-width="7" fill="#FFFFFF" cx="49.9057971" cy="114.544643" rx="14.7608696" ry="12.6160714"></ellipse>
                    <ellipse id="Oval" stroke="#0025FF" stroke-width="5.6" fill="#FFFFFF" cx="35.1449275" cy="82.27288" rx="14.057971" ry="14.0178571"></ellipse>
                    <ellipse id="Oval-Copy" stroke="#0025FF" stroke-width="5.6" fill="#FFFFFF" cx="67.4782609" cy="79.4693085" rx="14.057971" ry="14.0178571"></ellipse>
                </g>
            </g>
        </g>
    </g>
</svg>