<?xml version="1.0" encoding="UTF-8"?>
<svg width="547px" height="551px" viewBox="0 0 547 551" version="1.1" xmlns="http://www.w3.org/2000/svg" xmlns:xlink="http://www.w3.org/1999/xlink">
    <!-- Generator: Sketch 52.5 (67469) - http://www.bohemiancoding.com/sketch -->
    <title>Group</title>
    <desc>Created with Sketch.</desc>
    <g id="Page-1" stroke="none" stroke-width="1" fill="none" fill-rule="evenodd">
        <g id="Artboard" transform="translate(-978.000000, -441.000000)">
            <g id="Group" transform="translate(978.000000, 441.000000)">
                <g id="Group-4" transform="translate(223.000000, 54.000000)">
                    <path d="M239,491.087891 L247,491.087891 L247,242 L322,242 L322,229 L2,229 L2,242 L60,242 L60,491.087891 L68,491.087891 L68,242 L239,242 L239,491.087891 Z" id="Combined-Shape-Copy" stroke="#0025FF" stroke-width="4" fill="#FFFFFF"></path>
                    <path d="M164.477838,81.0304861 C178.627017,83.3515962 186.237157,94.2242282 186.237157,111.413662 L186.237157,228.594827 L170.250314,228.594827 L170.250314,111.413662 C170.250314,103.278439 168.468918,98.9968532 164.519628,97.221264 C164.342327,125.886548 162.830317,154.551707 159.983631,183.216545 L159.804641,185.018899 L150,185.018899 L150,-2 L159.804641,-2 L159.983631,-0.197646455 C162.672512,26.8781639 164.17059,53.9542635 164.477838,81.0304861 Z" id="Combined-Shape" stroke="#0025FF" stroke-width="4" fill="#FFFFFF"></path>
                    <g id="Group-3" transform="translate(231.000000, 125.000000)">
                        <path d="M4.8144426,53.4 L48.8123993,53.4 C50.4692535,53.4 51.8123993,54.7431458 51.8123993,56.4 C51.8123993,56.5238173 51.8047339,56.6475159 51.7894472,56.7703859 L51.3777655,60.0793563 L49.9612714,61.7447001 L45.2801162,99.3703859 C45.0932405,100.872435 43.8166979,102 42.3030682,102 L11.3237736,102 C9.81014401,102 8.53360141,100.872435 8.34672572,99.3703859 L3.59554334,61.1818438 L2.19859773,59.6736249 L1.83739468,56.7703859 C1.6328362,55.1262077 2.79987853,53.6275106 4.44405669,53.4229521 C4.56692672,53.4076654 4.69062528,53.4 4.8144426,53.4 Z" id="Rectangle" fill="#CA8484"></path>
                        <g id="Group-6">
                            <path d="M16.3243485,50.6829677 C21.8472275,50.6935941 25.9253101,35.525905 25.8993013,22.0984165 C25.8732926,8.6709281 21.7530415,2.06835704 16.2301624,2.05773064 C10.7072833,2.04710424 6.23679887,5.49422114 6.26280763,18.9217096 C6.28881639,32.349198 10.8014694,50.6723413 16.3243485,50.6829677 Z" id="Oval" fill="#5BD4A3" transform="translate(16.081060, 26.370340) rotate(-15.000000) translate(-16.081060, -26.370340) "></path>
                            <path d="M12.0930233,14.4679688 C18.7859133,31.9961967 22.67619,44.9669255 23.7638536,53.3801553" id="Path-38" stroke="#000000" stroke-width="1.2" stroke-linecap="round"></path>
                        </g>
                        <g id="Group-6" transform="translate(34.162791, 26.700000) scale(-1, 1) translate(-34.162791, -26.700000) translate(18.139535, 0.000000)">
                            <path d="M16.3243485,50.6829677 C21.8472275,50.6935941 25.9253101,35.525905 25.8993013,22.0984165 C25.8732926,8.6709281 21.7530415,2.06835704 16.2301624,2.05773064 C10.7072833,2.04710424 6.23679887,5.49422114 6.26280763,18.9217096 C6.28881639,32.349198 10.8014694,50.6723413 16.3243485,50.6829677 Z" id="Oval" fill="#72FFC6" transform="translate(16.081060, 26.370340) rotate(-15.000000) translate(-16.081060, -26.370340) "></path>
                            <path d="M12.0930233,14.4679688 C18.7859133,31.9961967 22.67619,44.9669255 23.7638536,53.3801553" id="Path-38" stroke="#000000" stroke-width="1.2" stroke-linecap="round"></path>
                        </g>
                    </g>
                </g>
                <g id="Group-4" transform="translate(165.000000, 273.500000) scale(-1, 1) translate(-165.000000, -273.500000) ">
                    <path d="M224.518578,109 C204.398768,152.161965 189.533175,179.479959 179.921801,190.953981 C171.242354,201.315471 150.361473,227.16005 123.454976,241.055816 C105.668229,250.241719 77,247.676205 77,255.33212 C77,274.569347 169.010451,265.52571 191.286031,246.147963 C206.136418,233.229466 224.374408,197.312214 246,138.396209 L224.518578,109 Z" id="Path-4" stroke="#0025FF" stroke-width="9" fill="#FEE500" transform="translate(161.500000, 187.500000) rotate(19.000000) translate(-161.500000, -187.500000) "></path>
                    <path d="M141,304 C207.666667,306.904779 243.333333,321.571446 248,348 C252.666667,374.428554 239.018614,435.313887 207.055842,530.656 C240.688613,538.241519 254.095147,543.137772 247.275445,545.34476 C240.455743,547.551747 214.863543,547.551747 170.498844,545.34476 C167.319828,492.472673 170.366245,449.137753 179.638094,415.34 C188.909942,381.542247 162.363911,364.09558 100,363 L141,304 Z" id="Path-12" stroke="#0025FF" stroke-width="8" fill="#FFFFFF" transform="translate(174.500000, 425.500000) scale(-1, 1) translate(-174.500000, -425.500000) "></path>
                    <path d="M242.953679,362.416175 C296.033785,359.901739 321.326574,349.265364 318.832046,330.50705 C313.512703,290.50674 318.832046,214.539567 296.000923,168.586823 C280.780174,137.95166 265.625265,124.242169 250.536196,127.458349 C226.628,132.608914 214.673901,150.786338 214.673901,181.990619 C214.673901,203.795517 205.937719,239.54311 188.465354,289.233397 L188.465354,289.233397 C178.389259,317.889166 193.451061,349.287546 222.106831,359.363641 C228.794137,361.715067 235.872947,362.751593 242.953679,362.416175 Z" id="Path-17" stroke="#0025FF" stroke-width="8" fill="#0025FF"></path>
                    <g id="Group-7" transform="translate(180.000000, 0.000000)">
                        <path d="M28.1476233,45.9706654 C22.0223599,55.254379 17.7923362,63.9926814 15.4575522,72.1855725 C11.9553761,84.4749091 4.94292183,95.5293133 0.89182171,95.5293133 C-1.8089117,95.5293133 1.62439565,96.9145614 11.1917438,99.6850576 L14.0738117,118.984756 C19.9481001,122.815736 24.6393706,124.731226 28.1476233,124.731226 C33.4100024,124.731226 47.0500565,129.873676 47.0500565,133.861866 C47.0500565,136.52066 56.033371,134.521049 74,127.863032 C64.7324333,111.848212 60.0986499,102.455554 60.0986499,99.6850576 C60.0986499,95.5293133 74,98.9734717 74,59.786602 C74,33.6620221 58.7158744,29.0567099 28.1476233,45.9706654 Z" id="Path-19" stroke="#0025FF" stroke-width="8" fill="#FFFFFF"></path>
                        <path d="M16.932675,59.2463549 C9.11119552,52.101743 7.90789099,44.3817504 13.3227614,36.086377 C21.4450669,23.643317 48.5546719,12 53.5006766,12 C58.4466812,12 84.9193809,14.9456597 87.3259899,25.5160184 C89.732599,36.086377 90.9359035,47.2031664 89.1309467,59.2463549 C87.9276422,67.2751473 84.6185547,74.9951399 79.2036844,82.4063328 C65.3656823,86.900816 58.4466812,85.5540392 58.4466812,78.3660023 C58.4466812,67.583947 51.9565924,58.587743 45.8119837,63.085845 C41.7155778,66.0845796 32.0891416,64.8047496 16.932675,59.2463549 Z" id="Path-20" fill="#0025FF"></path>
                        <ellipse id="Oval" fill="#0025FF" cx="89.5" cy="21" rx="20.5" ry="21"></ellipse>
                    </g>
                    <path d="M42.0628515,290.674304 C42.0874118,267.513117 60.2294413,248.175958 73.8882326,274.918507 C79.2731528,285.461643 172.19405,249.680862 178.436526,208.591172 C184.679001,167.501483 179.993325,102.527219 206.32297,87.8339405 C232.652614,73.1406615 299.88973,130.16139 240.382572,225.271971 C180.875413,320.382552 42.0437323,308.704384 42.0628515,290.674304 Z" id="Path-18" stroke="#0025FF" stroke-width="8" fill="#FFFFFF" transform="translate(153.164008, 194.266582) rotate(34.000000) translate(-153.164008, -194.266582) "></path>
                    <path d="M265.821138,545 L276.260163,545 L276.260163,380.54412 L328,380.54412 L328,163.04012 L311.927782,163.004444 L311.927782,364.2799 L211.550802,364.2799 L184.262138,380.54412 L208.065041,380.54412 L208.065041,545 L218.504065,545 L218.504065,380.54412 L265.821138,380.54412 L265.821138,545 Z" id="Combined-Shape" stroke="#0025FF" stroke-width="4" fill="#FFFFFF"></path>
                </g>
            </g>
        </g>
    </g>
</svg>