<?xml version="1.0" encoding="UTF-8"?>
<svg width="657px" height="642px" viewBox="0 0 657 642" version="1.1" xmlns="http://www.w3.org/2000/svg" xmlns:xlink="http://www.w3.org/1999/xlink">
    <!-- Generator: Sketch 57 (83077) - https://sketch.com -->
    <title>编组</title>
    <desc>Created with Sketch.</desc>
    <defs>
        <path d="M80,0 L600.437356,0 C644.53555,2.03210026e-14 680.317636,35.6853115 680.437063,79.7833439 L681.999701,656.783344 C682.119357,700.965962 646.399268,736.880051 602.21665,736.999707 C602.144432,736.999902 602.072213,737 601.999994,737 L80,737 C35.81722,737 6.42741176e-14,701.18278 0,657 L0,80 C8.80002471e-15,35.81722 35.81722,2.23270997e-14 80,0 Z" id="path-1"></path>
    </defs>
    <g id="Page-1" stroke="none" stroke-width="1" fill="none" fill-rule="evenodd">
        <g id="画板" transform="translate(-74.000000, -201.000000)">
            <g id="编组" transform="translate(55.500000, 142.000000)">
                <g id="Rectangle-+-Rectangle-Copy-4-+-Rectangle-Copy-5-Mask">
                    <mask id="mask-2" fill="white">
                        <use xlink:href="#path-1"></use>
                    </mask>
                    <path stroke="#0025FF" stroke-width="8" d="M80,-4 L600.437356,-4 C646.74046,-4 684.31165,33.4695771 684.437048,79.7725111 L685.999686,656.772511 C686.125325,703.16426 648.619232,740.874053 602.227483,740.999692 C602.113739,740.999949 602.113739,740.999949 601.999994,741 L80,741 C33.608081,741 -4,703.391919 -4,657 L-4,80 C-4,33.608081 33.608081,-4 80,-4 Z"></path>
                    <g id="Group-Copy-2" mask="url(#mask-2)">
                        <g transform="translate(578.500000, 89.000000) scale(-1, 1) rotate(53.000000) translate(-578.500000, -89.000000) translate(546.000000, 60.000000)">
                            <rect id="Rectangle" fill-opacity="0.0676800272" fill="#000000" x="18" y="0" width="47" height="58"></rect>
                            <path d="M65,1.10134124e-13 C64.3333333,8.91216834 63,18.7448506 61,29.4980469 C59,40.2512431 54.6666667,47.7890035 48,52.1113281 L-5.68434189e-14,52.1113281 C7.55555556,47.7890035 11.8888889,39.4537171 13,27.1054688 C14.1111111,14.7572204 15.4444444,5.72206418 17,1.10134124e-13 L65,1.10134124e-13 Z M38,28 L21,28 L21,32 L38,32 L38,28 Z M48,19 L21,19 L21,23 L48,23 L48,19 Z M58,10 L21,10 L21,14 L58,14 L58,10 Z" id="Combined-Shape" fill="#0025FF"></path>
                        </g>
                    </g>
                    <g id="Group-Copy-3" mask="url(#mask-2)">
                        <g transform="translate(48.000000, 131.000000)">
                            <rect id="Rectangle" fill-opacity="0.0676800272" fill="#000000" x="18" y="0" width="47" height="58"></rect>
                            <path d="M65,1.10134124e-13 C64.3333333,8.91216834 63,18.7448506 61,29.4980469 C59,40.2512431 54.6666667,47.7890035 48,52.1113281 L-5.68434189e-14,52.1113281 C7.55555556,47.7890035 11.8888889,39.4537171 13,27.1054688 C14.1111111,14.7572204 15.4444444,5.72206418 17,1.10134124e-13 L65,1.10134124e-13 Z M38,28 L21,28 L21,32 L38,32 L38,28 Z M48,19 L21,19 L21,23 L48,23 L48,19 Z M58,10 L21,10 L21,14 L58,14 L58,10 Z" id="Combined-Shape" fill="#0025FF"></path>
                        </g>
                    </g>
                    <g id="Group-Copy-4" mask="url(#mask-2)">
                        <g transform="translate(564.000000, 286.000000)">
                            <rect id="Rectangle" fill-opacity="0.0676800272" fill="#000000" x="18" y="0" width="47" height="58"></rect>
                            <path d="M65,1.10134124e-13 C64.3333333,8.91216834 63,18.7448506 61,29.4980469 C59,40.2512431 54.6666667,47.7890035 48,52.1113281 L-5.68434189e-14,52.1113281 C7.55555556,47.7890035 11.8888889,39.4537171 13,27.1054688 C14.1111111,14.7572204 15.4444444,5.72206418 17,1.10134124e-13 L65,1.10134124e-13 Z M38,28 L21,28 L21,32 L38,32 L38,28 Z M48,19 L21,19 L21,23 L48,23 L48,19 Z M58,10 L21,10 L21,14 L58,14 L58,10 Z" id="Combined-Shape" fill="#0025FF"></path>
                        </g>
                    </g>
                    <g id="Group-Copy-5" mask="url(#mask-2)">
                        <g transform="translate(28.000000, 315.000000)">
                            <rect id="Rectangle" fill-opacity="0.0676800272" fill="#000000" x="18" y="0" width="47" height="58"></rect>
                            <path d="M65,1.10134124e-13 C64.3333333,8.91216834 63,18.7448506 61,29.4980469 C59,40.2512431 54.6666667,47.7890035 48,52.1113281 L-5.68434189e-14,52.1113281 C7.55555556,47.7890035 11.8888889,39.4537171 13,27.1054688 C14.1111111,14.7572204 15.4444444,5.72206418 17,1.10134124e-13 L65,1.10134124e-13 Z M38,28 L21,28 L21,32 L38,32 L38,28 Z M48,19 L21,19 L21,23 L48,23 L48,19 Z M58,10 L21,10 L21,14 L58,14 L58,10 Z" id="Combined-Shape" fill="#0025FF"></path>
                        </g>
                    </g>
                </g>
                <g id="Group" transform="translate(2.500000, 138.000000)">
                    <g id="Group-3" transform="translate(484.000000, 248.000000)">
                        <path d="M107.323921,269.924963 C126.101602,269.924963 135.67265,226.612498 141.323921,178.424963 C149.990805,104.523753 114.979598,86.9249633 107.323921,86.9249633 C98.4633002,86.9249633 73.3239207,151.736402 73.3239207,178.424963 C73.3239207,228.959018 88.5462392,269.924963 107.323921,269.924963 Z" id="Oval" fill="#0025FF" transform="translate(108.008544, 178.424963) rotate(-300.000000) translate(-108.008544, -178.424963) "></path>
                        <g id="Group-4" transform="translate(116.718489, 182.042605) rotate(30.000000) translate(-116.718489, -182.042605) translate(77.218489, 118.042605)" stroke="#FFFFFF">
                            <path d="M71.4541016,0.48046875 C51.9530769,48.8630216 29.9802957,82.4828901 0.114257812,127.779297" id="Path-76"></path>
                            <path d="M50.5634766,46.9111328 C71.9553565,35.5410672 62.4611522,38.9365514 78.1181641,34.4306641" id="Path-77"></path>
                            <path d="M40.3466797,63.4921875 C31.0117857,40.8775578 33.5701556,51.5829662 30.9628906,31.8330078" id="Path-78"></path>
                            <path d="M26.4628906,88.2607422 C35.71875,84.6699219 44.9746094,81.0791016 54.2304688,77.4882812" id="Path-79"></path>
                            <path d="M16.9716797,100.75 C13.7789714,90.8603516 10.586263,80.9707031 7.39355469,71.0810547" id="Path-80"></path>
                        </g>
                        <path d="M109.344811,233.542672 C128.122492,233.542672 135.780925,191.801566 146.244184,149.215938 C162.310658,83.8251339 117.000488,50.5426715 109.344811,50.5426715 C100.48419,50.5426715 55.4665886,107.238955 55.4665886,133.927516 C55.4665886,184.461571 90.5671293,233.542672 109.344811,233.542672 Z" id="Oval" fill="#34D4FF" transform="translate(102.566109, 142.042672) rotate(-315.000000) translate(-102.566109, -142.042672) "></path>
                        <g id="Group-4" transform="translate(108.551758, 146.162109) rotate(15.000000) translate(-108.551758, -146.162109) translate(69.051758, 82.162109)" stroke="#FFFFFF">
                            <path d="M71.4541016,0.48046875 C51.9530769,48.8630216 29.9802957,82.4828901 0.114257812,127.779297" id="Path-76"></path>
                            <path d="M50.5634766,46.9111328 C71.9553565,35.5410672 62.4611522,38.9365514 78.1181641,34.4306641" id="Path-77"></path>
                            <path d="M40.3466797,63.4921875 C31.0117857,40.8775578 33.5701556,51.5829662 30.9628906,31.8330078" id="Path-78"></path>
                            <path d="M26.4628906,88.2607422 C35.71875,84.6699219 44.9746094,81.0791016 54.2304688,77.4882812" id="Path-79"></path>
                            <path d="M16.9716797,100.75 C13.7789714,90.8603516 10.586263,80.9707031 7.39355469,71.0810547" id="Path-80"></path>
                        </g>
                        <path d="M90.9969636,196.207916 C109.774645,196.207916 140.244165,150.181251 140.244165,99.6471964 C140.244165,78.3942161 101.877363,13.2079165 90.9969636,13.2079165 C81.2722482,13.2079165 39.1126781,70.002006 39.1126781,94.3651353 C39.1126781,144.89919 72.2192822,196.207916 90.9969636,196.207916 Z" id="Oval" fill="#FEE500" transform="translate(89.678422, 104.707916) rotate(-330.000000) translate(-89.678422, -104.707916) "></path>
                        <g id="Group-4" transform="translate(50.000000, 44.000000)" stroke="#FFFFFF">
                            <path d="M71.4541016,0.48046875 C51.9530769,48.8630216 29.9802957,82.4828901 0.114257812,127.779297" id="Path-76"></path>
                            <path d="M50.5634766,46.9111328 C71.9553565,35.5410672 62.4611522,38.9365514 78.1181641,34.4306641" id="Path-77"></path>
                            <path d="M40.3466797,63.4921875 C31.0117857,40.8775578 33.5701556,51.5829662 30.9628906,31.8330078" id="Path-78"></path>
                            <path d="M26.4628906,88.2607422 C35.71875,84.6699219 44.9746094,81.0791016 54.2304688,77.4882812" id="Path-79"></path>
                            <path d="M16.9716797,100.75 C13.7789714,90.8603516 10.586263,80.9707031 7.39355469,71.0810547" id="Path-80"></path>
                        </g>
                    </g>
                    <g id="Group-3" transform="translate(102.500000, 377.000000) scale(-1, 1) translate(-102.500000, -377.000000) translate(0.000000, 248.000000)">
                        <path d="M107.323921,269.924963 C126.101602,269.924963 135.67265,226.612498 141.323921,178.424963 C149.990805,104.523753 114.979598,86.9249633 107.323921,86.9249633 C98.4633002,86.9249633 73.3239207,151.736402 73.3239207,178.424963 C73.3239207,228.959018 88.5462392,269.924963 107.323921,269.924963 Z" id="Oval" fill="#0025FF" transform="translate(108.008544, 178.424963) rotate(-300.000000) translate(-108.008544, -178.424963) "></path>
                        <g id="Group-4" transform="translate(116.718489, 182.042605) rotate(30.000000) translate(-116.718489, -182.042605) translate(77.218489, 118.042605)" stroke="#FFFFFF">
                            <path d="M71.4541016,0.48046875 C51.9530769,48.8630216 29.9802957,82.4828901 0.114257812,127.779297" id="Path-76"></path>
                            <path d="M50.5634766,46.9111328 C71.9553565,35.5410672 62.4611522,38.9365514 78.1181641,34.4306641" id="Path-77"></path>
                            <path d="M40.3466797,63.4921875 C31.0117857,40.8775578 33.5701556,51.5829662 30.9628906,31.8330078" id="Path-78"></path>
                            <path d="M26.4628906,88.2607422 C35.71875,84.6699219 44.9746094,81.0791016 54.2304688,77.4882812" id="Path-79"></path>
                            <path d="M16.9716797,100.75 C13.7789714,90.8603516 10.586263,80.9707031 7.39355469,71.0810547" id="Path-80"></path>
                        </g>
                        <path d="M109.344811,233.542672 C128.122492,233.542672 135.780925,191.801566 146.244184,149.215938 C162.310658,83.8251339 117.000488,50.5426715 109.344811,50.5426715 C100.48419,50.5426715 55.4665886,107.238955 55.4665886,133.927516 C55.4665886,184.461571 90.5671293,233.542672 109.344811,233.542672 Z" id="Oval" fill="#34D4FF" transform="translate(102.566109, 142.042672) rotate(-315.000000) translate(-102.566109, -142.042672) "></path>
                        <g id="Group-4" transform="translate(108.551758, 146.162109) rotate(15.000000) translate(-108.551758, -146.162109) translate(69.051758, 82.162109)" stroke="#FFFFFF">
                            <path d="M71.4541016,0.48046875 C51.9530769,48.8630216 29.9802957,82.4828901 0.114257812,127.779297" id="Path-76"></path>
                            <path d="M50.5634766,46.9111328 C71.9553565,35.5410672 62.4611522,38.9365514 78.1181641,34.4306641" id="Path-77"></path>
                            <path d="M40.3466797,63.4921875 C31.0117857,40.8775578 33.5701556,51.5829662 30.9628906,31.8330078" id="Path-78"></path>
                            <path d="M26.4628906,88.2607422 C35.71875,84.6699219 44.9746094,81.0791016 54.2304688,77.4882812" id="Path-79"></path>
                            <path d="M16.9716797,100.75 C13.7789714,90.8603516 10.586263,80.9707031 7.39355469,71.0810547" id="Path-80"></path>
                        </g>
                        <path d="M90.9969636,196.207916 C109.774645,196.207916 140.244165,150.181251 140.244165,99.6471964 C140.244165,78.3942161 101.877363,13.2079165 90.9969636,13.2079165 C81.2722482,13.2079165 39.1126781,70.002006 39.1126781,94.3651353 C39.1126781,144.89919 72.2192822,196.207916 90.9969636,196.207916 Z" id="Oval" fill="#FEE500" transform="translate(89.678422, 104.707916) rotate(-330.000000) translate(-89.678422, -104.707916) "></path>
                        <g id="Group-4" transform="translate(50.000000, 44.000000)" stroke="#FFFFFF">
                            <path d="M71.4541016,0.48046875 C51.9530769,48.8630216 29.9802957,82.4828901 0.114257812,127.779297" id="Path-76"></path>
                            <path d="M50.5634766,46.9111328 C71.9553565,35.5410672 62.4611522,38.9365514 78.1181641,34.4306641" id="Path-77"></path>
                            <path d="M40.3466797,63.4921875 C31.0117857,40.8775578 33.5701556,51.5829662 30.9628906,31.8330078" id="Path-78"></path>
                            <path d="M26.4628906,88.2607422 C35.71875,84.6699219 44.9746094,81.0791016 54.2304688,77.4882812" id="Path-79"></path>
                            <path d="M16.9716797,100.75 C13.7789714,90.8603516 10.586263,80.9707031 7.39355469,71.0810547" id="Path-80"></path>
                        </g>
                    </g>
                    <rect id="Rectangle" stroke="#0025FF" stroke-width="10" fill="#FFFFFF" x="143" y="5" width="390" height="490" rx="30"></rect>
                    <path d="M143,295 L143,470 C143,483.807119 154.192881,495 168,495 L508,495 C521.807119,495 533,483.807119 533,470 L533,295 L143,295 Z" id="Rectangle" stroke="#0025FF" stroke-width="10" fill="#0025FF"></path>
                    <rect id="Rectangle" fill="#FFFFFF" opacity="0.306105841" x="178" y="313" width="2" height="167"></rect>
                    <rect id="Rectangle-Copy-4" fill="#FFFFFF" opacity="0.306105841" x="231" y="313" width="2" height="167"></rect>
                    <rect id="Rectangle-Copy-4" fill="#FFFFFF" opacity="0.306105841" x="284" y="313" width="2" height="167"></rect>
                    <rect id="Rectangle-Copy-4" fill="#FFFFFF" opacity="0.306105841" x="336" y="313" width="2" height="167"></rect>
                    <rect id="Rectangle-Copy-4" fill="#FFFFFF" opacity="0.306105841" x="389" y="313" width="2" height="167"></rect>
                    <rect id="Rectangle-Copy-4" fill="#FFFFFF" opacity="0.306105841" x="442" y="313" width="2" height="167"></rect>
                    <rect id="Rectangle-Copy-4" fill="#FFFFFF" opacity="0.306105841" x="495" y="313" width="2" height="167"></rect>
                    <path d="M251,52 C256.522847,52 261,56.4771525 261,62 L261,125 C261,130.522847 256.522847,135 251,135 L188,135 C182.477153,135 178,130.522847 178,125 L178,62 C178,56.4771525 182.477153,52 188,52 L251,52 Z M431,108 C433.209139,108 435,109.790861 435,112 L435,127 C435,129.209139 433.209139,131 431,131 L272,131 C269.790861,131 268,129.209139 268,127 L268,112 C268,109.790861 269.790861,108 272,108 L431,108 Z M491,80 C493.209139,80 495,81.790861 495,84 L495,99 C495,101.209139 493.209139,103 491,103 L272,103 C269.790861,103 268,101.209139 268,99 L268,84 C268,81.790861 269.790861,80 272,80 L491,80 Z M491,52 C493.209139,52 495,53.790861 495,56 L495,71 C495,73.209139 493.209139,75 491,75 L272,75 C269.790861,75 268,73.209139 268,71 L268,56 C268,53.790861 269.790861,52 272,52 L491,52 Z" id="Combined-Shape" fill="#E4EBFF"></path>
                    <path d="M251,174 C256.522847,174 261,178.477153 261,184 L261,247 C261,252.522847 256.522847,257 251,257 L188,257 C182.477153,257 178,252.522847 178,247 L178,184 C178,178.477153 182.477153,174 188,174 L251,174 Z M431,230 C433.209139,230 435,231.790861 435,234 L435,249 C435,251.209139 433.209139,253 431,253 L272,253 C269.790861,253 268,251.209139 268,249 L268,234 C268,231.790861 269.790861,230 272,230 L431,230 Z M491,202 C493.209139,202 495,203.790861 495,206 L495,221 C495,223.209139 493.209139,225 491,225 L272,225 C269.790861,225 268,223.209139 268,221 L268,206 C268,203.790861 269.790861,202 272,202 L491,202 Z M491,174 C493.209139,174 495,175.790861 495,178 L495,193 C495,195.209139 493.209139,197 491,197 L272,197 C269.790861,197 268,195.209139 268,193 L268,178 C268,175.790861 269.790861,174 272,174 L491,174 Z" id="Combined-Shape-Copy" fill="#E4EBFF"></path>
                    <polygon id="Path-2" fill="#00B7FF" opacity="0.449474516" points="166 479.162602 211 457 242.138439 453 261 439.816536 311 437 326.666667 421 355 421 361 402 402.999774 394.949511 421 372.727414 447 370.486936 457 351 515.171875 350.210349 515.171875 479.162602"></polygon>
                </g>
                <g id="Group-6" transform="translate(362.500000, 384.000000)">
                    <g id="Group-3" transform="translate(8.000000, 65.497758)" stroke="#0025FF" stroke-width="8">
                        <path d="M8.66421877,150.83456 C14.8501469,165.418402 21.0309028,175.106478 27.2064866,179.89879 C36.4698622,187.087256 56.8435825,184.87542 61.0720905,184.87542 C63.8910959,184.87542 75.2952538,184.202253 95.2845643,182.855918 L205.225772,184.87542 C219.577072,181.396838 229.059181,158.133719 233.672098,115.086062 C240.591475,50.5145764 198.642448,-4.54130262 115.554755,0.603375223 C18.5352586,6.61069159 -17.0949203,56.6877531 8.66421877,150.83456 Z" id="Path-28" fill="#FFFFFF"></path>
                        <path d="M62.0502713,89.5336323 C53.7670643,122.863378 52.1667836,145.617339 57.249429,157.795516 C62.3320745,169.973692 81.8554999,177.570491 115.819705,180.585913 L115.819705,192.12515 C82.4478286,196.037044 53.9628309,193.887704 30.3647121,185.67713 C6.76659332,177.466556 -2.67506322,141.733223 2.03974249,78.47713" id="Path-29" fill="#FFFFFF"></path>
                        <path d="M153.016212,89.5336323 C150.060694,107.320179 148.582934,121.100747 148.582934,130.875336 C148.582934,145.53722 155.934326,172.690864 163.497255,176.901241 C167.015195,178.859722 181.994676,187.240403 192.692565,179.685111 C196.455362,177.027668 197.800453,166.320669 199.98289,168.3713 C203.056081,171.258889 199.873099,179.755791 201.143839,185.401664 C202.414579,191.047537 217.934177,193.431747 221.887874,192.293696 C228.114416,190.501419 230.339148,185.401664 232.619742,188.191547 C234.900335,190.981429 228.467162,199.735119 217.708335,201.992145 C207.83278,204.063875 193.387511,199.15376 192.692565,199.182721 C164.984931,200.337408 164.510309,199.13722 160.104956,199.13722 C152.42198,199.13722 108.179827,201.529169 98.9602552,153.812559 C89.7406838,106.09595 91.7484615,87.3817684 98.9602552,61.6520179" id="Path-29" fill="#FFFFFF" transform="translate(162.926711, 132.077130) scale(-1, 1) translate(-162.926711, -132.077130) "></path>
                        <path d="M1.07957403,105.928384 C21.0923617,102.548794 39.7402718,104.90868 57.0233041,113.008041" id="Path-37"></path>
                        <path d="M172.949729,105.928384 C194.393491,96.8340162 213.756888,96.3365131 231.039921,104.435874" id="Path-37-Copy"></path>
                    </g>
                    <g id="Group-5" transform="translate(95.525510, 0.000000)">
                        <path d="M11.306288,45.0756079 C4.8934179,43.0119911 2.224093,38.8557401 3.29831324,32.6068548 C4.90964361,23.2335269 17.8838762,9.27730919 20.790853,7.96272397 C23.6978299,6.64813874 40.0056197,1.31993336 44.1066189,6.80901181 C48.207618,12.2980903 51.7402633,18.4238139 53.7402767,25.8862241 C55.073619,30.8611642 55.0908196,36.2167517 53.7918785,41.9529866 C46.8010026,48.2368662 42.392119,49.2949837 40.5652276,45.1273391 C37.8248906,38.8758722 31.7239399,35.3848303 29.2557175,39.6260018 C27.6102359,42.4534495 21.6270928,44.2699849 11.306288,45.0756079 Z" id="Path-20" fill="#0025FF" transform="translate(28.910239, 25.997933) rotate(-9.000000) translate(-28.910239, -25.997933) "></path>
                        <path d="M20.2262644,67 C36.1412832,60.9642876 42.0059827,67.2725942 41.820363,72.8762371 C41.6347432,78.4798801 41.3815601,83.007539 41.0608136,86.4592139 C41.820363,98.0656207 20.2262644,98.0656207 20.2262644,86.4592139 C20.2262644,80.8735367 17.6749371,70.4273947 20.2262644,67 Z" id="Path-21" stroke="#0025FF" stroke-width="4.8" fill="#FFFFFF"></path>
                        <ellipse id="Oval" stroke="#0025FF" stroke-width="3.36" fill="#FFFFFF" cx="9.6917517" cy="51.140615" rx="6.32070763" ry="7.58095772"></ellipse>
                        <ellipse id="Oval-Copy-2" stroke="#0025FF" stroke-width="3.36" fill="#FFFFFF" cx="49.3015195" cy="51.140615" rx="6.32070763" ry="7.58095772"></ellipse>
                        <ellipse id="Oval" stroke="#0025FF" stroke-width="4.8" fill="#FFFFFF" transform="translate(29.375011, 53.322174) rotate(-2.000000) translate(-29.375011, -53.322174) " cx="29.375011" cy="53.3221744" rx="17.5208015" ry="26.0322527"></ellipse>
                        <ellipse id="Oval" stroke="#0025FF" stroke-width="4.2" fill="#FFFFFF" cx="29.9180161" cy="68.8295163" rx="8.84899068" ry="7.58095772"></ellipse>
                        <ellipse id="Oval" stroke="#0025FF" stroke-width="3.36" fill="#FFFFFF" cx="21.0690254" cy="49.4375153" rx="8.42761017" ry="8.42328635"></ellipse>
                        <ellipse id="Oval-Copy" stroke="#0025FF" stroke-width="3.36" fill="#FFFFFF" cx="40.4525288" cy="47.752858" rx="8.42761017" ry="8.42328635"></ellipse>
                    </g>
                    <g id="Group-8" transform="translate(63.000000, 158.000000)">
                        <rect id="Rectangle" stroke="#FFFFFF" stroke-width="4" fill="#0025FF" x="-2" y="-2" width="156" height="107" rx="10"></rect>
                        <path d="M49.5454545,62.7267452 L43,62.7267452 L43,41.4267452 L49.5454545,41.4267452 C53.0181992,41.4267452 55.6090824,42.4449168 57.3181818,44.4812906 C58.7545526,46.2631177 59.4727273,48.7903652 59.4727273,52.0631088 C59.4727273,55.5176715 58.6409174,58.1585542 56.9772727,59.9858361 C55.313628,61.8131179 52.8363801,62.7267452 49.5454545,62.7267452 Z M47.3090909,58.7176543 L49.5454545,58.7176543 C51.5272826,58.7176543 52.9590865,58.1858414 53.8409091,57.1221997 C54.7227317,56.058558 55.1636364,54.3722113 55.1636364,52.0631088 C55.1636364,50.4994646 54.9909108,49.2631134 54.6454545,48.3540179 C54.2999983,47.3721948 53.7136405,46.6403839 52.8863636,46.1585634 C52.0590868,45.6767428 50.9454615,45.4358361 49.5454545,45.4358361 L47.3090909,45.4358361 L47.3090909,58.7176543 Z M65.1060779,47.5973767 L67.2878961,51.3763966 L76.9480158,45.7991239 L78.9934703,49.3419551 L69.3333506,54.9192278 L71.7060779,59.028912 L82.4054281,52.8516393 L84.4508826,56.3944705 L70.8936486,64.2217432 L60.2027395,45.7045455 L73.5474037,38 L75.5928582,41.5428312 L65.1060779,47.5973767 Z M101.409091,58.6358361 L101.409091,62.7267452 L86.0545455,62.7267452 L86.0545455,41.4540179 L90.4454545,41.4540179 L90.4454545,58.6358361 L101.409091,58.6358361 Z M118.236364,58.6358361 L118.236364,62.7267452 L102.881818,62.7267452 L102.881818,41.4540179 L107.272727,41.4540179 L107.272727,58.6358361 L118.236364,58.6358361 Z" id="DELL" fill="#FFFFFF"></path>
                    </g>
                    <path d="M60.6153599,229.117929 L200.376175,286.302796 C207.193776,287.669119 212.87511,288.166909 217.420177,287.796165 C224.237778,287.24005 261.886047,295.691111 267.738265,301.6242 C273.590483,307.557288 255.744214,312.563589 247.864692,312.563589 C242.611678,312.563589 230.809594,310.894822 212.458442,307.557288 L196.967375,307.557288 C97.2552312,290.127203 44.5710563,280.379184 38.9148501,278.313229 C30.4305408,275.214298 9.34516299,259.452791 19.8878519,239.484357 C26.9163112,226.172067 40.4921472,222.716591 60.6153599,229.117929 Z" id="Path-81" stroke="#0025FF" stroke-width="8" fill="#FFFFFF"></path>
                    <path d="M43.6153599,229.117929 L183.376175,286.302796 C190.193776,287.669119 195.87511,288.166909 200.420177,287.796165 C207.237778,287.24005 244.886047,295.691111 250.738265,301.6242 C256.590483,307.557288 238.744214,312.563589 230.864692,312.563589 C225.611678,312.563589 213.809594,310.894822 195.458442,307.557288 L179.967375,307.557288 C80.2552312,290.127203 27.5710563,280.379184 21.9148501,278.313229 C13.4305408,275.214298 -7.65483701,259.452791 2.8878519,239.484357 C9.91631117,226.172067 23.4921472,222.716591 43.6153599,229.117929 Z" id="Path-81" stroke="#0025FF" stroke-width="8" fill="#FFFFFF" transform="translate(125.947852, 269.281795) scale(-1, 1) translate(-125.947852, -269.281795) "></path>
                </g>
            </g>
        </g>
    </g>
</svg>