<?xml version="1.0" encoding="UTF-8"?>
<svg width="647px" height="643px" viewBox="0 0 647 643" version="1.1" xmlns="http://www.w3.org/2000/svg" xmlns:xlink="http://www.w3.org/1999/xlink">
    <!-- Generator: Sketch 57 (83077) - https://sketch.com -->
    <title>编组</title>
    <desc>Created with Sketch.</desc>
    <defs>
        <path d="M80,0 L600.437356,0 C644.53555,-8.10070684e-15 680.317636,35.6853115 680.437063,79.7833439 L681.999701,656.783344 C682.119357,700.965962 646.399268,736.880051 602.21665,736.999707 C602.144432,736.999902 602.072213,737 601.999994,737 L80,737 C35.81722,737 -8.80002471e-15,701.18278 0,657 L0,80 C-5.41083001e-15,35.81722 35.81722,8.11624501e-15 80,0 Z" id="path-1"></path>
        <path d="M48,0 C74.509668,0 96,21.490332 96,48 C96,74.509668 74.509668,96 48,96 C21.490332,96 0,74.509668 0,48 C0,21.490332 21.490332,0 48,0 Z M48,16 C30.326888,16 16,30.326888 16,48 C16,65.673112 30.326888,80 48,80 C65.673112,80 80,65.673112 80,48 C80,30.326888 65.673112,16 48,16 Z" id="path-3"></path>
        <path d="M48,0 C74.509668,0 96,21.490332 96,48 C96,74.509668 74.509668,96 48,96 C21.490332,96 0,74.509668 0,48 C0,21.490332 21.490332,0 48,0 Z M48,16 C30.326888,16 16,30.326888 16,48 C16,65.673112 30.326888,80 48,80 C65.673112,80 80,65.673112 80,48 C80,30.326888 65.673112,16 48,16 Z" id="path-5"></path>
    </defs>
    <g id="Page-1" stroke="none" stroke-width="1" fill="none" fill-rule="evenodd">
        <g id="画板" transform="translate(-47.000000, -152.000000)">
            <g id="编组" transform="translate(23.000000, 50.000000)">
                <path d="" id="Path-74" stroke="#979797"></path>
                <g id="Rectangle-+-Rectangle-Copy-4-+-Rectangle-Copy-5-Mask">
                    <mask id="mask-2" fill="white">
                        <use xlink:href="#path-1"></use>
                    </mask>
                    <path stroke="#0025FF" stroke-width="8" d="M80,-4 L600.437356,-4 C646.74046,-4 684.31165,33.4695771 684.437048,79.7725111 L685.999686,656.772511 C686.125325,703.16426 648.619232,740.874053 602.227483,740.999692 C602.113739,740.999949 602.113739,740.999949 601.999994,741 L80,741 C33.608081,741 -4,703.391919 -4,657 L-4,80 C-4,33.608081 33.608081,-4 80,-4 Z"></path>
                    <g id="Group-3" mask="url(#mask-2)">
                        <g transform="translate(39.000000, 107.000000)">
                            <circle id="Oval" stroke="#0025FF" stroke-width="4.28571429" fill="#FFFFFF" cx="50" cy="50" r="52.1428571"></circle>
                            <path d="M51,92.5 L51,98 L49,98 L49,92.5 L51,92.5 Z M73.3660254,88.4711432 L74.8660254,91.0692194 L73.1339746,92.0692194 L71.6339746,89.4711432 L73.3660254,88.4711432 Z M26.6339746,88.4711432 L28.3660254,89.4711432 L26.8660254,92.0692194 L25.1339746,91.0692194 L26.6339746,88.4711432 Z M89.4711432,71.6339746 L92.0692194,73.1339746 L91.0692194,74.8660254 L88.4711432,73.3660254 L89.4711432,71.6339746 Z M10.5288568,71.6339746 L11.5288568,73.3660254 L8.93078062,74.8660254 L7.93078062,73.1339746 L10.5288568,71.6339746 Z M50.5,10.75 L51.035,45.542 L66.4129809,19.613707 L67.7120191,20.363707 L52.7126254,47.0603022 C53.5042345,47.791128 54,48.8376679 54,50 C54,51.8045185 52.8050809,53.3299488 51.1633323,53.8282012 L51.25,59.5 L48.75,59.5 L48.835,53.961 L46.7700318,57.636293 L44.6049682,56.386293 L46.896107,52.5232649 C46.3358614,51.8349393 46,50.956692 46,50 C46,48.1523565 47.2527147,46.5973001 48.9551283,46.1378467 L49.5,10.75 L50.5,10.75 Z M98,49 L98,51 L92.5,51 L92.5,49 L98,49 Z M7.5,49 L7.5,51 L2,51 L2,49 L7.5,49 Z M91.0692194,25.1339746 L92.0692194,26.8660254 L89.4711432,28.3660254 L88.4711432,26.6339746 L91.0692194,25.1339746 Z M8.93078062,25.1339746 L11.5288568,26.6339746 L10.5288568,28.3660254 L7.93078062,26.8660254 L8.93078062,25.1339746 Z M73.1339746,7.93078062 L74.8660254,8.93078062 L73.3660254,11.5288568 L71.6339746,10.5288568 L73.1339746,7.93078062 Z M26.8660254,7.93078062 L28.3660254,10.5288568 L26.6339746,11.5288568 L25.1339746,8.93078062 L26.8660254,7.93078062 Z M51,2 L51,7.5 L49,7.5 L49,2 L51,2 Z" id="Combined-Shape" stroke="none" fill="#0025FF"></path>
                        </g>
                    </g>
                    <path d="M27,686.563589 C64.7953111,633.780857 105.397205,604.039647 148.805681,597.33996 C213.918395,587.290429 240.861587,607.157419 281.276375,555.710057 C321.691163,504.262695 340.925024,497.661388 375.577547,496.412806 C410.230071,495.164223 475.491885,501.986611 506.925609,451.461614 C527.881425,417.778282 580.072888,397.624411 663.5,391 L663.5,683.076528 L27,686.563589 Z" id="Path-91" fill="#FEF700" mask="url(#mask-2)"></path>
                </g>
                <g id="Group-6" transform="translate(322.500000, 148.000000)">
                    <rect id="Rectangle" stroke="#0025FF" stroke-width="8" fill="#FFFFFF" x="4" y="4" width="340" height="227"></rect>
                    <rect id="Rectangle" fill="#0025FF" x="44" y="143" width="256" height="20"></rect>
                    <rect id="Rectangle-Copy" fill="#0025FF" x="44" y="183" width="152" height="20"></rect>
                    <g id="Path-82" transform="translate(44.000000, 22.000000)">
                        <mask id="mask-4" fill="white">
                            <use xlink:href="#path-3"></use>
                        </mask>
                        <use id="Mask" fill="#0025FF" fill-rule="nonzero" xlink:href="#path-3"></use>
                        <path d="M51,30 C56.3333333,26.6666667 65.0026042,15 77.0078125,-5 L110,51 L67,55 C51,41.6666667 45.6666667,33.3333333 51,30 Z" fill="#FF0000" mask="url(#mask-4)"></path>
                    </g>
                    <rect id="Rectangle" fill="#0025FF" x="162" y="235" width="10" height="362"></rect>
                    <polygon id="Path" fill="#0025FF" points="172.773503 366.717968 301.830127 590.250598 293.169873 595.250598 167 376.717968 40.830127 595.250598 32.169873 590.250598 161.226497 366.717968 167 356.717968"></polygon>
                    <g id="Path-82" transform="translate(252.000000, 70.000000) rotate(-180.000000) translate(-252.000000, -70.000000) translate(204.000000, 22.000000)">
                        <mask id="mask-6" fill="white">
                            <use xlink:href="#path-5"></use>
                        </mask>
                        <use id="Mask" fill="#0025FF" fill-rule="nonzero" xlink:href="#path-5"></use>
                        <path d="M51,30 C56.3333333,26.6666667 65.0026042,15 77.0078125,-5 L110,51 L67,55 C51,41.6666667 45.6666667,33.3333333 51,30 Z" fill="#00D1FF" mask="url(#mask-6)"></path>
                    </g>
                </g>
                <g id="Group-4" transform="translate(24.500000, 584.000000)">
                    <rect id="Rectangle" fill="#FFFFFF" x="0" y="0" width="158" height="96"></rect>
                    <path d="M33.75,53.25 L33.75,59.25 L-11.25,59.25 L-11.25,53.25 L33.75,53.25 Z M64.25,40.75 L64.25,46.75 L-11.75,46.75 L-11.75,40.75 L64.25,40.75 Z" id="Combined-Shape" fill="#0025FF" transform="translate(26.250000, 50.000000) rotate(-90.000000) translate(-26.250000, -50.000000) "></path>
                    <path d="M77.75,53.25 L77.75,59.25 L32.75,59.25 L32.75,53.25 L77.75,53.25 Z M108.25,40.75 L108.25,46.75 L32.25,46.75 L32.25,40.75 L108.25,40.75 Z" id="Combined-Shape-Copy" fill="#0025FF" transform="translate(70.250000, 50.000000) rotate(-90.000000) translate(-70.250000, -50.000000) "></path>
                    <path d="M123.75,53.25 L123.75,59.25 L78.75,59.25 L78.75,53.25 L123.75,53.25 Z M154.25,40.75 L154.25,46.75 L78.25,46.75 L78.25,40.75 L154.25,40.75 Z" id="Combined-Shape-Copy-2" fill="#0025FF" transform="translate(116.250000, 50.000000) rotate(-90.000000) translate(-116.250000, -50.000000) "></path>
                </g>
                <path d="M444.329963,197.096259 C453.147978,191.653292 474.5,193.477488 474.5,201.851678 C474.5,210.225869 449.754596,220.398678 444.329963,223.097289 C438.905331,225.7959 433.877987,226.156233 426.233915,236.86254 C418.589844,247.568846 386.227252,283.803286 371.109375,298.041434 C355.991498,312.279582 294.029412,328.630881 284.088235,335.663635 C281.565454,337.448344 279.532207,339.986966 277.988494,343.279504 C274.142408,358.20165 278.91069,367.33334 279.704323,389.906448 C280.360583,393.335673 280.942875,396.617674 281.451244,399.753867 C290.464122,427.482322 333.012481,473.461475 363.5,524 C397.5,580.361092 377.933799,666.946911 383.156661,693.44794 C388.379523,719.948968 415.265933,712.768171 431.775185,718.623825 C442.781353,722.527594 450.356291,728.652985 454.5,737 L454.5,737 L349.499774,737 C351.084012,690.766981 349.417421,655.433648 344.5,631 C337.123869,594.349528 320.553865,579.271162 294.236842,539.802192 C277.519836,514.730852 264.259872,498.150377 254.456951,490.060767 C253.891884,490.796446 253.31768,491.537929 252.735294,492.284423 C245.598039,529.501584 240.5,552.364471 237.441176,560.873084 C232.852941,573.636004 222.147059,687.031483 222.147059,697.233719 C222.147059,707.435954 264.970588,716.691013 274.341222,720.555968 C280.588312,723.132604 282.307904,728.613948 279.5,737 L279.5,737 L199.205882,735.470528 L199.205882,735.470528 L199.205882,691.831521 C199.205882,689.488267 201.5,611.583267 186.952665,555.194962 C177.254442,517.602759 172.363368,469.611901 172.279442,411.222388 L172.279442,411.222388 L147.205882,466.283393 C116.617647,513.187212 98.7745098,540.24318 93.6764706,547.451297 C88.5784314,554.659414 87.5588235,561.081097 90.6176471,566.716346 L90.6176471,566.716346 L93.6764706,588.386941 C93.6764706,598.752917 88.9179687,603.935905 79.4009651,603.935905 C65.1254596,603.935905 58.5,594.600134 58.5,585.582237 C58.5,579.570306 62.5784314,571.333921 70.7352941,560.873084 C80.0101739,486.425156 98.9221236,421.134127 127.471143,365 C156.020163,308.865873 187.578801,278.408151 222.147059,273.626837 C250.696078,272.569215 274.656863,272.040404 294.029412,272.040404 C323.088235,272.040404 348.302619,258.275153 364.017923,250.627791 C379.733226,242.980429 435.511949,202.539225 444.329963,197.096259 Z" id="Combined-Shape" stroke="#0025FF" stroke-width="8" fill="#FFFFFF"></path>
                <g id="Group-5" transform="translate(197.445445, 229.790956) rotate(-10.000000) translate(-197.445445, -229.790956) translate(161.945445, 172.290956)">
                    <path d="M13.8118636,54.9415546 C5.98162342,52.4239704 2.72131415,47.3565436 4.03093578,39.739274 C5.99536824,28.3133696 21.8316005,11.3042548 25.3803863,9.70262312 C28.929172,8.10099148 48.8380601,1.61073301 53.8467391,8.30335989 C58.8554182,14.9959868 63.1703773,22.464531 65.6145241,31.5620706 C67.2439553,37.627097 67.2665983,44.1557416 65.6824531,51.1480045 C57.1490734,58.8061189 51.7664996,60.0946472 49.5347316,55.0135896 C46.1870795,47.392003 38.7372305,43.1344358 35.7250268,48.3038081 C33.7168909,51.7500562 26.4125032,53.9626384 13.8118636,54.9415546 Z" id="Path-20" fill="#0025FF" transform="translate(35.301639, 31.694194) rotate(-9.000000) translate(-35.301639, -31.694194) "></path>
                    <path d="M24.278343,89.1630126 C43.988969,81.7681167 53.7293377,81.5034331 53.4994491,88.3689617 C53.2695605,95.2344904 52.9559952,100.781734 52.5587532,105.010692 C51.169223,111.625936 45.374321,114.808358 39.9346367,114.371344 C31.7751102,113.715822 26.3658488,114.808358 24.278343,105.010692 C22.8603268,98.3552627 21.1185441,93.3622232 24.278343,89.1630126 Z" id="Path-21" stroke="#0025FF" stroke-width="8" fill="#FFFFFF"></path>
                    <ellipse id="Oval" stroke="#0025FF" stroke-width="5.6" fill="#FFFFFF" cx="11.9594941" cy="62.332773" rx="7.5" ry="9"></ellipse>
                    <ellipse id="Oval-Copy-2" stroke="#0025FF" stroke-width="5.6" fill="#FFFFFF" cx="60.6194517" cy="62.7894235" rx="7.5" ry="9"></ellipse>
                    <ellipse id="Oval" stroke="#0025FF" stroke-width="8" fill="#FFFFFF" transform="translate(35.865993, 64.998914) rotate(-2.000000) translate(-35.865993, -64.998914) " cx="35.8659928" cy="64.9989145" rx="21.3923214" ry="31.7329803"></ellipse>
                    <ellipse id="Oval" stroke="#0025FF" stroke-width="7" fill="#FFFFFF" cx="36.0896883" cy="83.8498297" rx="11" ry="9"></ellipse>
                    <circle id="Oval" stroke="#0025FF" stroke-width="5.6" fill="#FFFFFF" cx="25.5434117" cy="60.1585644" r="10.5"></circle>
                    <circle id="Oval-Copy" stroke="#0025FF" stroke-width="5.6" fill="#FFFFFF" cx="49.2358791" cy="58.243626" r="10.5"></circle>
                </g>
                <path d="M109.5,410 L160.5,431.834192" id="Path-84" stroke="#0025FF" stroke-width="8"></path>
                <path d="M308.164062,271 C314.388021,285.069278 317.5,302.235944 317.5,322.5" id="Path-85" stroke="#0025FF" stroke-width="8"></path>
                <path d="M170.5,416.353866 L190.441406,368.111328" id="Path-86" stroke="#0025FF" stroke-width="8"></path>
                <path d="M270.095554,352.241584 C272.258546,347.149985 276.359573,337.723724 282.398635,323.962801" id="Path-86-Copy" stroke="#0025FF" stroke-width="8" transform="translate(276.247095, 338.102192) rotate(-316.000000) translate(-276.247095, -338.102192) "></path>
                <path d="M176.5,481 C203.5,467.133333 224.5,458.333333 239.5,454.6 C254.5,450.866667 277.010417,447 307.03125,443" id="Path-90" stroke="#0025FF" stroke-width="8"></path>
            </g>
        </g>
    </g>
</svg>