<?xml version="1.0" encoding="UTF-8"?>
<svg width="682px" height="730px" viewBox="0 0 682 730" version="1.1" xmlns="http://www.w3.org/2000/svg" xmlns:xlink="http://www.w3.org/1999/xlink">
    <!-- Generator: Sketch 57 (83077) - https://sketch.com -->
    <title>最后页-6@2x</title>
    <desc>Created with Sketch.</desc>
    <defs>
        <path d="M80.5,-1.8189894e-12 L600.937356,-1.8189894e-12 C645.03555,-1.81287926e-12 680.817636,35.6853115 680.937063,79.7833439 L682.499701,656.783344 C682.619357,700.965962 646.899268,736.880051 602.71665,736.999707 C602.644432,736.999902 602.572213,737 602.499994,737 L80.5,737 C36.31722,737 0.5,701.18278 0.5,657 L0.5,80 C0.5,35.81722 36.31722,-1.81087316e-12 80.5,-1.8189894e-12 Z" id="path-1"></path>
    </defs>
    <g id="Page-1" stroke="none" stroke-width="1" fill="none" fill-rule="evenodd">
        <g id="工作台-周报-尾页-6" transform="translate(-34.000000, -446.000000)">
            <g id="最后页-6" transform="translate(33.000000, 439.000000)">
                <g id="Rectangle-+-Rectangle-Copy-4-+-Rectangle-Copy-5-Mask" transform="translate(0.500000, 0.000000)">
                    <mask id="mask-2" fill="white">
                        <use xlink:href="#path-1"></use>
                    </mask>
                    <path stroke="#0025FF" stroke-width="8" d="M80.5,-4 L600.937356,-4 C647.24046,-4 684.81165,33.4695771 684.937048,79.7725111 L686.499686,656.772511 C686.625325,703.16426 649.119232,740.874053 602.727483,740.999692 C602.613739,740.999949 602.613739,740.999949 602.499994,741 L80.5,741 C34.108081,741 -3.5,703.391919 -3.5,657 L-3.5,80 C-3.5,33.608081 34.108081,-4 80.5,-4 Z"></path>
                    <g id="Group-2" mask="url(#mask-2)" fill="#56D7FA" stroke="#0025FF" stroke-width="5">
                        <g transform="translate(-30.000000, 344.000000)">
                            <path d="M12,1.56319402e-13 C92.5669336,10.6122545 152.395059,37.3730072 191.484375,80.2822581 C230.573691,123.191509 256.930098,177.76409 270.553594,244 L253.3504,250 C220.098571,154.735338 189.476563,100.068672 161.484375,86 C119.496094,64.8969927 56.8489583,27.8660254 12,27 C12,9 12,1.56319402e-13 12,1.56319402e-13 Z" id="Path-63"></path>
                            <path d="M6,23 C86.5669336,33.6122545 146.395059,60.3730072 185.484375,103.282258 C224.573691,146.191509 250.930098,200.76409 264.553594,267 L247.3504,273 C214.098571,177.735338 183.476563,123.068672 155.484375,109 C113.496094,87.8969927 50.8489583,50.8660254 6,50 C6,32 6,23 6,23 Z" id="Path-63-Copy"></path>
                            <path d="M2.27373675e-13,48 C80.5669336,58.6122545 140.395059,85.3730072 179.484375,128.282258 C218.573691,171.191509 244.930098,225.76409 258.553594,292 L241.3504,298 C208.098571,202.735338 177.476563,148.068672 149.484375,134 C107.496094,112.896993 44.8489583,75.8660254 2.27373675e-13,75 C2.27373675e-13,57 2.27373675e-13,48 2.27373675e-13,48 Z" id="Path-63-Copy-2"></path>
                            <path d="M2.27373675e-13,72 C80.5669336,82.6122545 140.395059,109.373007 179.484375,152.282258 C218.573691,195.191509 244.930098,249.76409 258.553594,316 L241.3504,322 C208.098571,226.735338 177.476563,172.068672 149.484375,158 C107.496094,136.896993 44.8489583,99.8660254 2.27373675e-13,99 C2.27373675e-13,81 2.27373675e-13,72 2.27373675e-13,72 Z" id="Path-63-Copy-3"></path>
                            <path d="M6,97 C86.5669336,107.612254 146.395059,134.373007 185.484375,177.282258 C224.573691,220.191509 250.930098,274.76409 264.553594,341 L247.3504,347 C214.098571,251.735338 183.476563,197.068672 155.484375,183 C113.496094,161.896993 50.8489583,124.866025 6,124 C6,106 6,97 6,97 Z" id="Path-63-Copy-4"></path>
                            <path d="M6,115 C86.5669336,125.612254 146.395059,152.373007 185.484375,195.282258 C224.573691,238.191509 250.930098,292.76409 264.553594,359 L247.3504,365 C214.098571,269.735338 183.476563,215.068672 155.484375,201 C113.496094,179.896993 50.8489583,142.866025 6,142 C6,124 6,115 6,115 Z" id="Path-63-Copy-5"></path>
                            <path d="M12,141 C92.5669336,151.612254 152.395059,178.373007 191.484375,221.282258 C230.573691,264.191509 256.930098,318.76409 270.553594,385 L253.3504,391 C220.098571,295.735338 189.476563,241.068672 161.484375,227 C119.496094,205.896993 56.8489583,168.866025 12,168 C12,150 12,141 12,141 Z" id="Path-63-Copy-6"></path>
                            <path d="M12,163 C92.5669336,173.612254 152.395059,200.373007 191.484375,243.282258 C230.573691,286.191509 256.930098,340.76409 270.553594,407 L253.3504,413 C220.098571,317.735338 189.476563,263.068672 161.484375,249 C119.496094,227.896993 56.8489583,190.866025 12,190 C12,172 12,163 12,163 Z" id="Path-63-Copy-7"></path>
                            <path d="M12,189 C92.5669336,199.612254 152.395059,226.373007 191.484375,269.282258 C230.573691,312.191509 256.930098,366.76409 270.553594,433 L253.3504,439 C220.098571,343.735338 189.476563,289.068672 161.484375,275 C119.496094,253.896993 56.8489583,216.866025 12,216 C12,198 12,189 12,189 Z" id="Path-63-Copy-8"></path>
                        </g>
                    </g>
                    <g id="Group-2-Copy" mask="url(#mask-2)" fill="#56D7FA" stroke="#0025FF" stroke-width="5">
                        <g transform="translate(572.500000, 545.500000) scale(-1, 1) translate(-572.500000, -545.500000) translate(437.000000, 326.000000)">
                            <path d="M12,1.56319402e-13 C92.5669336,10.6122545 152.395059,37.3730072 191.484375,80.2822581 C230.573691,123.191509 256.930098,177.76409 270.553594,244 L253.3504,250 C220.098571,154.735338 189.476563,100.068672 161.484375,86 C119.496094,64.8969927 56.8489583,27.8660254 12,27 C12,9 12,1.56319402e-13 12,1.56319402e-13 Z" id="Path-63"></path>
                            <path d="M6,23 C86.5669336,33.6122545 146.395059,60.3730072 185.484375,103.282258 C224.573691,146.191509 250.930098,200.76409 264.553594,267 L247.3504,273 C214.098571,177.735338 183.476563,123.068672 155.484375,109 C113.496094,87.8969927 50.8489583,50.8660254 6,50 C6,32 6,23 6,23 Z" id="Path-63-Copy"></path>
                            <path d="M2.27373675e-13,48 C80.5669336,58.6122545 140.395059,85.3730072 179.484375,128.282258 C218.573691,171.191509 244.930098,225.76409 258.553594,292 L241.3504,298 C208.098571,202.735338 177.476563,148.068672 149.484375,134 C107.496094,112.896993 44.8489583,75.8660254 2.27373675e-13,75 C2.27373675e-13,57 2.27373675e-13,48 2.27373675e-13,48 Z" id="Path-63-Copy-2"></path>
                            <path d="M2.27373675e-13,72 C80.5669336,82.6122545 140.395059,109.373007 179.484375,152.282258 C218.573691,195.191509 244.930098,249.76409 258.553594,316 L241.3504,322 C208.098571,226.735338 177.476563,172.068672 149.484375,158 C107.496094,136.896993 44.8489583,99.8660254 2.27373675e-13,99 C2.27373675e-13,81 2.27373675e-13,72 2.27373675e-13,72 Z" id="Path-63-Copy-3"></path>
                            <path d="M6,97 C86.5669336,107.612254 146.395059,134.373007 185.484375,177.282258 C224.573691,220.191509 250.930098,274.76409 264.553594,341 L247.3504,347 C214.098571,251.735338 183.476563,197.068672 155.484375,183 C113.496094,161.896993 50.8489583,124.866025 6,124 C6,106 6,97 6,97 Z" id="Path-63-Copy-4"></path>
                            <path d="M6,115 C86.5669336,125.612254 146.395059,152.373007 185.484375,195.282258 C224.573691,238.191509 250.930098,292.76409 264.553594,359 L247.3504,365 C214.098571,269.735338 183.476563,215.068672 155.484375,201 C113.496094,179.896993 50.8489583,142.866025 6,142 C6,124 6,115 6,115 Z" id="Path-63-Copy-5"></path>
                            <path d="M12,141 C92.5669336,151.612254 152.395059,178.373007 191.484375,221.282258 C230.573691,264.191509 256.930098,318.76409 270.553594,385 L253.3504,391 C220.098571,295.735338 189.476563,241.068672 161.484375,227 C119.496094,205.896993 56.8489583,168.866025 12,168 C12,150 12,141 12,141 Z" id="Path-63-Copy-6"></path>
                            <path d="M12,163 C92.5669336,173.612254 152.395059,200.373007 191.484375,243.282258 C230.573691,286.191509 256.930098,340.76409 270.553594,407 L253.3504,413 C220.098571,317.735338 189.476563,263.068672 161.484375,249 C119.496094,227.896993 56.8489583,190.866025 12,190 C12,172 12,163 12,163 Z" id="Path-63-Copy-7"></path>
                            <path d="M12,189 C92.5669336,199.612254 152.395059,226.373007 191.484375,269.282258 C230.573691,312.191509 256.930098,366.76409 270.553594,433 L253.3504,439 C220.098571,343.735338 189.476563,289.068672 161.484375,275 C119.496094,253.896993 56.8489583,216.866025 12,216 C12,198 12,189 12,189 Z" id="Path-63-Copy-8"></path>
                        </g>
                    </g>
                    <path d="M104.551123,263.084668 C116.97753,263.084668 127.051123,237.341041 127.051123,205.584668 C127.051123,173.828294 116.97753,166.084668 104.551123,166.084668 C92.1247158,166.084668 95.5511227,173.828294 95.5511227,205.584668 C95.5511227,237.341041 92.1247158,263.084668 104.551123,263.084668 Z" id="Oval" stroke="#0025FF" stroke-width="5" fill="#56D7FA" mask="url(#mask-2)" transform="translate(111.084668, 214.584668) rotate(-45.000000) translate(-111.084668, -214.584668) "></path>
                    <path d="M85.5508949,328.310804 C91.7510446,328.310804 96.7772591,315.040893 96.7772591,298.671629 C96.7772591,282.302364 91.7510446,278.310804 85.5508949,278.310804 C79.3507451,278.310804 81.0603492,282.302364 81.0603492,298.671629 C81.0603492,315.040893 79.3507451,328.310804 85.5508949,328.310804 Z" id="Oval-Copy-3" stroke="#0025FF" stroke-width="5" fill="#56D7FA" mask="url(#mask-2)" transform="translate(88.810804, 303.310804) rotate(-45.000000) translate(-88.810804, -303.310804) "></path>
                    <path d="M537.735474,286.949752 C543.935624,286.949752 539.441535,276.180328 539.441535,259.811063 C539.441535,243.441799 543.935624,236.949752 537.735474,236.949752 C531.535324,236.949752 522.733842,238.740532 522.733842,255.109796 C522.733842,271.479061 531.535324,286.949752 537.735474,286.949752 Z" id="Oval-Copy-4" stroke="#0025FF" stroke-width="5" fill="#56D7FA" mask="url(#mask-2)" transform="translate(531.874617, 261.949752) rotate(36.000000) translate(-531.874617, -261.949752) "></path>
                    <g id="Group-2" mask="url(#mask-2)" fill="#56D7FA" stroke="#0025FF" stroke-width="5">
                        <g transform="translate(150.342576, 648.096442) rotate(-60.000000) translate(-150.342576, -648.096442) translate(14.842576, 428.596442)">
                            <path d="M12,1.56319402e-13 C92.5669336,10.6122545 152.395059,37.3730072 191.484375,80.2822581 C230.573691,123.191509 256.930098,177.76409 270.553594,244 L253.3504,250 C220.098571,154.735338 189.476563,100.068672 161.484375,86 C119.496094,64.8969927 56.8489583,27.8660254 12,27 C12,9 12,1.56319402e-13 12,1.56319402e-13 Z" id="Path-63"></path>
                            <path d="M6,23 C86.5669336,33.6122545 146.395059,60.3730072 185.484375,103.282258 C224.573691,146.191509 250.930098,200.76409 264.553594,267 L247.3504,273 C214.098571,177.735338 183.476563,123.068672 155.484375,109 C113.496094,87.8969927 50.8489583,50.8660254 6,50 C6,32 6,23 6,23 Z" id="Path-63-Copy"></path>
                            <path d="M2.27373675e-13,48 C80.5669336,58.6122545 140.395059,85.3730072 179.484375,128.282258 C218.573691,171.191509 244.930098,225.76409 258.553594,292 L241.3504,298 C208.098571,202.735338 177.476563,148.068672 149.484375,134 C107.496094,112.896993 44.8489583,75.8660254 2.27373675e-13,75 C2.27373675e-13,57 2.27373675e-13,48 2.27373675e-13,48 Z" id="Path-63-Copy-2"></path>
                            <path d="M2.27373675e-13,72 C80.5669336,82.6122545 140.395059,109.373007 179.484375,152.282258 C218.573691,195.191509 244.930098,249.76409 258.553594,316 L241.3504,322 C208.098571,226.735338 177.476563,172.068672 149.484375,158 C107.496094,136.896993 44.8489583,99.8660254 2.27373675e-13,99 C2.27373675e-13,81 2.27373675e-13,72 2.27373675e-13,72 Z" id="Path-63-Copy-3"></path>
                            <path d="M6,97 C86.5669336,107.612254 146.395059,134.373007 185.484375,177.282258 C224.573691,220.191509 250.930098,274.76409 264.553594,341 L247.3504,347 C214.098571,251.735338 183.476563,197.068672 155.484375,183 C113.496094,161.896993 50.8489583,124.866025 6,124 C6,106 6,97 6,97 Z" id="Path-63-Copy-4"></path>
                            <path d="M6,115 C86.5669336,125.612254 146.395059,152.373007 185.484375,195.282258 C224.573691,238.191509 250.930098,292.76409 264.553594,359 L247.3504,365 C214.098571,269.735338 183.476563,215.068672 155.484375,201 C113.496094,179.896993 50.8489583,142.866025 6,142 C6,124 6,115 6,115 Z" id="Path-63-Copy-5"></path>
                            <path d="M12,141 C92.5669336,151.612254 152.395059,178.373007 191.484375,221.282258 C230.573691,264.191509 256.930098,318.76409 270.553594,385 L253.3504,391 C220.098571,295.735338 189.476563,241.068672 161.484375,227 C119.496094,205.896993 56.8489583,168.866025 12,168 C12,150 12,141 12,141 Z" id="Path-63-Copy-6"></path>
                            <path d="M12,163 C92.5669336,173.612254 152.395059,200.373007 191.484375,243.282258 C230.573691,286.191509 256.930098,340.76409 270.553594,407 L253.3504,413 C220.098571,317.735338 189.476563,263.068672 161.484375,249 C119.496094,227.896993 56.8489583,190.866025 12,190 C12,172 12,163 12,163 Z" id="Path-63-Copy-7"></path>
                            <path d="M12,189 C92.5669336,199.612254 152.395059,226.373007 191.484375,269.282258 C230.573691,312.191509 256.930098,366.76409 270.553594,433 L253.3504,439 C220.098571,343.735338 189.476563,289.068672 161.484375,275 C119.496094,253.896993 56.8489583,216.866025 12,216 C12,198 12,189 12,189 Z" id="Path-63-Copy-8"></path>
                        </g>
                    </g>
                    <g id="Group-2-Copy-2" mask="url(#mask-2)" fill="#56D7FA" stroke="#0025FF" stroke-width="5">
                        <g transform="translate(617.342576, 630.096442) scale(-1, 1) rotate(-60.000000) translate(-617.342576, -630.096442) translate(481.842576, 410.596442)">
                            <path d="M12,1.56319402e-13 C92.5669336,10.6122545 152.395059,37.3730072 191.484375,80.2822581 C230.573691,123.191509 256.930098,177.76409 270.553594,244 L253.3504,250 C220.098571,154.735338 189.476563,100.068672 161.484375,86 C119.496094,64.8969927 56.8489583,27.8660254 12,27 C12,9 12,1.56319402e-13 12,1.56319402e-13 Z" id="Path-63"></path>
                            <path d="M6,23 C86.5669336,33.6122545 146.395059,60.3730072 185.484375,103.282258 C224.573691,146.191509 250.930098,200.76409 264.553594,267 L247.3504,273 C214.098571,177.735338 183.476563,123.068672 155.484375,109 C113.496094,87.8969927 50.8489583,50.8660254 6,50 C6,32 6,23 6,23 Z" id="Path-63-Copy"></path>
                            <path d="M2.27373675e-13,48 C80.5669336,58.6122545 140.395059,85.3730072 179.484375,128.282258 C218.573691,171.191509 244.930098,225.76409 258.553594,292 L241.3504,298 C208.098571,202.735338 177.476563,148.068672 149.484375,134 C107.496094,112.896993 44.8489583,75.8660254 2.27373675e-13,75 C2.27373675e-13,57 2.27373675e-13,48 2.27373675e-13,48 Z" id="Path-63-Copy-2"></path>
                            <path d="M2.27373675e-13,72 C80.5669336,82.6122545 140.395059,109.373007 179.484375,152.282258 C218.573691,195.191509 244.930098,249.76409 258.553594,316 L241.3504,322 C208.098571,226.735338 177.476563,172.068672 149.484375,158 C107.496094,136.896993 44.8489583,99.8660254 2.27373675e-13,99 C2.27373675e-13,81 2.27373675e-13,72 2.27373675e-13,72 Z" id="Path-63-Copy-3"></path>
                            <path d="M6,97 C86.5669336,107.612254 146.395059,134.373007 185.484375,177.282258 C224.573691,220.191509 250.930098,274.76409 264.553594,341 L247.3504,347 C214.098571,251.735338 183.476563,197.068672 155.484375,183 C113.496094,161.896993 50.8489583,124.866025 6,124 C6,106 6,97 6,97 Z" id="Path-63-Copy-4"></path>
                            <path d="M6,115 C86.5669336,125.612254 146.395059,152.373007 185.484375,195.282258 C224.573691,238.191509 250.930098,292.76409 264.553594,359 L247.3504,365 C214.098571,269.735338 183.476563,215.068672 155.484375,201 C113.496094,179.896993 50.8489583,142.866025 6,142 C6,124 6,115 6,115 Z" id="Path-63-Copy-5"></path>
                            <path d="M12,141 C92.5669336,151.612254 152.395059,178.373007 191.484375,221.282258 C230.573691,264.191509 256.930098,318.76409 270.553594,385 L253.3504,391 C220.098571,295.735338 189.476563,241.068672 161.484375,227 C119.496094,205.896993 56.8489583,168.866025 12,168 C12,150 12,141 12,141 Z" id="Path-63-Copy-6"></path>
                            <path d="M12,163 C92.5669336,173.612254 152.395059,200.373007 191.484375,243.282258 C230.573691,286.191509 256.930098,340.76409 270.553594,407 L253.3504,413 C220.098571,317.735338 189.476563,263.068672 161.484375,249 C119.496094,227.896993 56.8489583,190.866025 12,190 C12,172 12,163 12,163 Z" id="Path-63-Copy-7"></path>
                            <path d="M12,189 C92.5669336,199.612254 152.395059,226.373007 191.484375,269.282258 C230.573691,312.191509 256.930098,366.76409 270.553594,433 L253.3504,439 C220.098571,343.735338 189.476563,289.068672 161.484375,275 C119.496094,253.896993 56.8489583,216.866025 12,216 C12,198 12,189 12,189 Z" id="Path-63-Copy-8"></path>
                        </g>
                    </g>
                    <path d="M19.5,705.832031 C40.5391172,682.634115 77.5919731,671.035156 130.658567,671.035156 C183.725162,671.035156 254.245269,662.690104 342.218888,646 L494.5,624 C621.166667,649.168607 683.5,669.099431 681.5,683.792471 C679.5,698.485511 679.5,718.554688 681.5,744 L11.5,744 L19.5,705.832031 Z" id="Path-3" fill="#FFFFFF" mask="url(#mask-2)"></path>
                    <path d="M19.5,711.960938 C52.890625,659.951315 93.2382812,630.563543 140.542969,623.797623 C187.847656,617.031703 224.5,629.365036 250.5,660.797623" id="Path-62" stroke="#0025FF" stroke-width="8" fill="#FFFFFF" mask="url(#mask-2)"></path>
                    <path d="M138,709.727461 C154.057292,669.160048 185.738281,645.493381 233.042969,638.727461 C280.347656,631.961541 327.833333,672.39163 375.5,760.017729" id="Path-62-Copy" stroke="#0025FF" stroke-width="8" fill="#FFFFFF" mask="url(#mask-2)" transform="translate(256.750000, 699.008864) scale(-1, 1) translate(-256.750000, -699.008864) "></path>
                    <path d="M239,760 C263.723958,675.964336 299.738281,630.563543 347.042969,623.797623 C394.347656,617.031703 431,629.365036 457,660.797623" id="Path-62-Copy-2" stroke="#0025FF" stroke-width="8" fill="#FFFFFF" mask="url(#mask-2)"></path>
                    <path d="M309,775 C374.057292,682.297669 430.238281,632.563543 477.542969,625.797623 C524.847656,619.031703 561.5,631.365036 587.5,662.797623" id="Path-62-Copy-3" stroke="#0025FF" stroke-width="8" fill="#FFFFFF" mask="url(#mask-2)"></path>
                    <path d="M484,736.930793 C549.057292,644.228462 605.238281,594.494336 652.542969,587.728416 C699.847656,580.962495 721.166667,621.330735 716.5,708.833136" id="Path-62-Copy-3" stroke="#0025FF" stroke-width="8" fill="#FFFFFF" mask="url(#mask-2)"></path>
                    <path d="" id="Path-2" stroke="#979797" mask="url(#mask-2)"></path>
                </g>
                <g id="Group" transform="translate(135.000000, 77.000000)">
                    <path d="M139.728707,218.044969 C135.545079,222.030051 132.087658,224.570664 129.356445,225.666807 C123.471143,228.02881 90.2431641,222 81,223.866025 C71.7568359,225.732051 85.4628906,233.574787 89,235.800781 C92.5371094,238.026775 95,242.56581 89,245.249388 C83,247.932966 78.8691406,243.407257 77.0693359,245.249388 C75.2695312,247.091518 79.9628906,252.729353 87.4814453,252.729353 C95,252.729353 109.980469,249.069121 115.411133,248.08032 C120.841797,247.091518 129.78125,244.352175 135,244.800781 C138.479167,245.099852 147.145833,245.099852 161,244.800781 L149.299658,219.842628 C147.89309,216.842257 144.320558,215.550225 141.320187,216.956794 C140.734505,217.231361 140.197075,217.598828 139.728707,218.044969 Z" id="Path-60" stroke="#0025FF" stroke-width="8" fill="#FFFFFF"></path>
                    <path d="M325.457031,400 C347.275877,393.712018 362,380.837838 364,371.918919 C366,363 362.292969,298.273604 334,284.053688 C305.707031,269.833772 245.999562,252.928571 211.999774,252.928571 C177.999986,252.928571 140,255.777344 128,258.888672 C116,262 92,262.470703 86,315 C82,350.019531 83.0104167,394.591146 89.03125,448.714844 L92,475 L32,520 L120.471143,512.036826 L135.623047,457 L161.583984,370 C164.190621,367.585937 166.299637,366.378906 167.911032,366.378906 C170.328125,366.378906 217,401.998472 247,405.637199 C277,409.275925 303.638186,406.287982 325.457031,400 Z" id="Path-57" stroke="#0025FF" stroke-width="8" fill="#FFFFFF"></path>
                    <path d="M185.725979,120 C190.390581,128.125362 195.935698,132.458696 202.361328,133 C211.999774,133.811957 256,135.822266 295,158 C321,172.785156 344.666667,194.329814 366,222.633975 C383.466146,248.915752 392.199219,272.113932 392.199219,292.228516 C392.199219,322.400391 374,359.544306 366,370 C358,380.455694 374.273438,320.625971 328.273438,288.445313 C297.606771,266.99154 247.51562,255.152626 177.999986,252.928571 L173.080078,252.928571 C159.915582,242.824171 152.555556,236.181314 151,233 C148.666667,228.228029 143.497396,221.912109 146.082031,205 C148.666667,188.087891 168.16017,156.967537 173.080078,151.983769 C176.360017,148.661256 175.617178,145 170.851562,141 L177.999986,123.149644 L185.725979,120 Z" id="Path-56" stroke="#0025FF" stroke-width="8" fill="#FFFFFF"></path>
                    <path d="M197.072266,315.619952 C211.574219,350.1346 221.216797,371.594616 226,380 C230.783203,388.405384 241.598633,408.494902 258.446289,440.268555 L322.729492,429.717654 C311.657878,422.572551 304.748047,418.666667 302,418 C299.251953,417.333333 296.530599,416.811945 293.835938,416.435836 C295.260417,383.63501 293.981771,358.033676 290,339.631836 C284.027344,312.029076 275.72168,287.321429 269.630859,278.160714 C265.570312,272.053571 241.384115,284.539984 197.072266,315.619952 Z" id="Path-59" stroke="#0025FF" stroke-width="8" fill="#FFFFFF"></path>
                    <path d="M152.96875,284.053688 C120.471143,308 87.4871192,327 72.3105469,354 C57.1339746,381 50,412.871672 50,416.435836 C50,420 54,422 59,420 C62.3333333,418.666667 66.7701823,408.495645 72.3105469,389.486936 C73.8834635,401.124877 74.6699219,408.295898 74.6699219,411 C74.6699219,415.056152 76.3950318,423.588867 77,425 C77.6049682,426.411133 84.8046875,425.880871 86,423.522623 C87.1953125,421.164376 89.3007813,404.218863 90.1240234,400.626953 C90.6728516,398.232347 91.9648438,391.938564 94,381.745605 C97.1451823,389.010254 99.0981445,395.095052 99.8588867,400 C100.619629,404.904948 101.333333,411.238281 102,419 C102.701497,421 104.701497,422 108,422 C111.298503,422 113.422526,420.666667 114.37207,418 C115.064779,408.054688 115.064779,401.721354 114.37207,399 C113.679362,396.278646 112.888346,391.536133 111.999023,384.772461 C114.005534,388.96296 115.339193,393.050488 116,397.035043 C116.660807,401.019599 116.893392,404.733829 116.697754,408.177734 C117.543132,411.064393 119.310547,411.338482 122,409 C126.03418,405.492277 126.03418,391.3125 126.03418,388.04248 C126.03418,384.772461 123.983398,365.895996 122.991699,360.757324 C122,355.618652 120.128418,339 130.914551,335 C141.700684,331 192.136945,320.032715 202.068359,316.273438 C211.999774,312.51416 253.144531,290.629101 277,256.015634 C300.855469,221.402167 287,170.992865 240,176.133975 C193,181.275084 185.466357,260.107376 152.96875,284.053688 Z" id="Path-58" stroke="#0025FF" stroke-width="8" fill="#FFFFFF"></path>
                    <g id="Group-5" transform="translate(157.230469, 92.574219) rotate(-25.000000) translate(-157.230469, -92.574219) translate(108.730469, 14.074219)">
                        <path d="M18.8740801,75.0041994 C8.17623467,71.565904 3.72132037,64.6471497 5.50933721,54.2479364 C8.19136247,38.6491164 29.8238237,15.4299666 34.6718373,13.2438901 C39.5198508,11.0578135 66.7178578,2.20005811 73.561594,11.3378674 C80.4053303,20.4756768 86.3014425,30.6726956 89.6419476,43.093403 C91.868951,51.3738746 91.9008736,60.2870538 89.7377154,69.8329404 C78.0808001,80.2868232 70.727467,82.0451605 67.6777161,75.1079525 C63.1030898,64.7021405 52.9246611,58.8884059 48.8102516,65.9453907 C46.067312,70.6500472 36.0885882,73.6696502 18.8740801,75.0041994 Z" id="Path-20" fill="#0025FF" transform="translate(48.230876, 43.271340) rotate(-9.000000) translate(-48.230876, -43.271340) "></path>
                        <path d="M33.7391304,122.357672 C60.2867362,112.313166 73.4057244,111.953646 73.0960948,121.279111 C72.7864653,130.604577 72.3641343,138.139412 71.8291019,143.883617 C69.9575884,152.869119 62.1526221,157.191812 54.826087,156.598214 C43.8362842,155.707818 36.5507246,157.191812 33.7391304,143.883617 C31.8292503,134.84353 29.4832994,128.061471 33.7391304,122.357672 Z" id="Path-21" stroke="#0025FF" stroke-width="8" fill="#FFFFFF"></path>
                        <ellipse id="Oval" stroke="#0025FF" stroke-width="5.6" fill="#FFFFFF" cx="16.1666667" cy="85.1071429" rx="10.5434783" ry="12.6160714"></ellipse>
                        <ellipse id="Oval-Copy-2" stroke="#0025FF" stroke-width="5.6" fill="#FFFFFF" cx="82.2391304" cy="85.1071429" rx="10.5434783" ry="12.6160714"></ellipse>
                        <ellipse id="Oval" stroke="#0025FF" stroke-width="8" fill="#FFFFFF" transform="translate(49.000018, 88.737648) rotate(-2.000000) translate(-49.000018, -88.737648) " cx="49.0000183" cy="88.7376484" rx="29.2261031" ry="43.3224543"></ellipse>
                        <ellipse id="Oval" stroke="#0025FF" stroke-width="12" fill="#FFFFFF" cx="49.9057971" cy="118.544643" rx="14.7608696" ry="16.6160714"></ellipse>
                        <ellipse id="Oval" stroke="#0025FF" stroke-width="5.6" fill="#0025FF" cx="35.1449275" cy="82.27288" rx="14.057971" ry="14.0178571"></ellipse>
                        <ellipse id="Oval-Copy" stroke="#0025FF" stroke-width="5.6" fill="#0025FF" cx="67.4782609" cy="79.4693085" rx="14.057971" ry="14.0178571"></ellipse>
                        <path d="M32.860299,77 L30,81.7243774" id="Path-4" stroke="#FFFFFF" stroke-width="3" stroke-linecap="round"></path>
                        <path d="M66.6231884,76 L63.7628894,80.7243774" id="Path-4-Copy-2" stroke="#FFFFFF" stroke-width="3" stroke-linecap="round"></path>
                        <path d="M38.860299,77 L36,81.7243774" id="Path-4-Copy" stroke="#FFFFFF" stroke-width="3" stroke-linecap="round"></path>
                        <path d="M72.6231884,76 L69.7628894,80.7243774" id="Path-4-Copy-3" stroke="#FFFFFF" stroke-width="3" stroke-linecap="round"></path>
                    </g>
                    <path d="M374,438 C336.222222,422.666667 289.222222,427.333333 233,452 C148.666667,489 62,521.629337 15,520 C-32,518.370663 51,548.92749 64,549.463745 C77,550 150,557.665413 226,534.851119 C302,512.036826 316,511 360,489 C389.333333,474.333333 394,457.333333 374,438 Z" id="Path-61" fill="#0025FF"></path>
                </g>
                <path d="M469,550 C440.635417,570.804269 411.635417,583.373614 382,587.708034" id="Path-64" stroke="#FFFFFF" stroke-width="4"></path>
                <path d="M439,550 C424.328664,560.873313 409.328664,567.442657 394,569.708034" id="Path-64-Copy" stroke="#FFFFFF" stroke-width="4"></path>
                <path d="M252.742188,601.947266 C238.070851,612.820578 223.070851,619.389923 207.742188,621.655299" id="Path-64-Copy-2" stroke="#FFFFFF" stroke-width="4" transform="translate(230.242188, 611.801283) rotate(19.000000) translate(-230.242188, -611.801283) "></path>
                <g id="编组" transform="translate(399.342798, 7.000000)" fill="#FEF700">
                    <circle id="Oval" cx="87.1572015" cy="88.5" r="41.5"></circle>
                    <rect id="Rectangle" x="84.6572015" y="0" width="6" height="30"></rect>
                    <rect id="Rectangle" transform="translate(145.121816, 42.673500) rotate(51.000000) translate(-145.121816, -42.673500) " x="142.121816" y="27.6734996" width="6" height="30"></rect>
                    <rect id="Rectangle" transform="translate(159.314403, 104.855289) rotate(103.000000) translate(-159.314403, -104.855289) " x="156.314403" y="89.8552886" width="6" height="30"></rect>
                    <rect id="Rectangle" transform="translate(119.547656, 154.721212) rotate(154.000000) translate(-119.547656, -154.721212) " x="116.547656" y="139.721212" width="6" height="30"></rect>
                    <rect id="Rectangle" transform="translate(55.766747, 154.721212) rotate(206.000000) translate(-55.766747, -154.721212) " x="52.7667467" y="139.721212" width="6" height="30"></rect>
                    <rect id="Rectangle" transform="translate(16.000000, 104.855289) rotate(257.000000) translate(-16.000000, -104.855289) " x="13" y="89.8552886" width="6" height="30"></rect>
                    <rect id="Rectangle" transform="translate(30.192588, 42.673500) rotate(309.000000) translate(-30.192588, -42.673500) " x="27.1925876" y="27.6734996" width="6" height="30"></rect>
                </g>
            </g>
        </g>
    </g>
</svg>