<?xml version="1.0" encoding="UTF-8"?>
<svg width="683px" height="694px" viewBox="0 0 683 694" version="1.1" xmlns="http://www.w3.org/2000/svg" xmlns:xlink="http://www.w3.org/1999/xlink">
    <!-- Generator: Sketch 57 (83077) - https://sketch.com -->
    <title>编组</title>
    <desc>Created with Sketch.</desc>
    <defs>
        <path d="M80.5,5.1159077e-13 L600.937356,5.1159077e-13 C645.03555,5.03490063e-13 680.817636,35.6853115 680.937063,79.7833439 L682.499701,656.783344 C682.619357,700.965962 646.899268,736.880051 602.71665,736.999707 C602.644432,736.999902 602.572213,737 602.499994,737 L80.5,737 C36.31722,737 0.5,701.18278 0.5,657 L0.5,80 C0.5,35.81722 36.31722,5.19707015e-13 80.5,5.1159077e-13 Z" id="path-1"></path>
        <linearGradient x1="50%" y1="0%" x2="50%" y2="96.960802%" id="linearGradient-3">
            <stop stop-color="#BABABA" offset="0%"></stop>
            <stop stop-color="#E2E2E2" offset="100%"></stop>
        </linearGradient>
        <path d="M106,384 L579,384 L579,431 C579,443.702549 568.702549,454 556,454 L129,454 C116.297451,454 106,443.702549 106,431 L106,384 L106,384 Z" id="path-4"></path>
        <filter x="-0.8%" y="-17.1%" width="101.7%" height="122.9%" filterUnits="objectBoundingBox" id="filter-5">
            <feOffset dx="0" dy="-8" in="SourceAlpha" result="shadowOffsetOuter1"></feOffset>
            <feColorMatrix values="0 0 0 0 0   0 0 0 0 0.145098039   0 0 0 0 1  0 0 0 1 0" type="matrix" in="shadowOffsetOuter1"></feColorMatrix>
        </filter>
        <path d="M232.075649,548 L452.815346,548 C455.422006,548 457.812764,549.44838 459.019734,551.75877 L484.095383,599.75877 C485.885465,603.185358 484.558814,607.414306 481.132226,609.204388 C480.131764,609.727038 479.01975,610 477.890995,610 L207,610 C203.134007,610 200,606.865993 200,603 C200,601.871246 200.272962,600.759231 200.795612,599.75877 L225.871262,551.75877 C227.078231,549.44838 229.468989,548 232.075649,548 Z" id="path-6"></path>
        <filter x="-0.7%" y="-3.2%" width="101.4%" height="112.9%" filterUnits="objectBoundingBox" id="filter-7">
            <feOffset dx="0" dy="4" in="SourceAlpha" result="shadowOffsetOuter1"></feOffset>
            <feColorMatrix values="0 0 0 0 0.871527778   0 0 0 0 0.890168845   0 0 0 0 1  0 0 0 1 0" type="matrix" in="shadowOffsetOuter1"></feColorMatrix>
        </filter>
        <path d="M3,37 L44,37 C45.6568542,37 47,38.3431458 47,40 L47,40 L47,40 C46.3704854,41.2590292 46.3704854,42.7409708 47,44 L47,44 L47,44 L47,103 L43.8786797,106.12132 C43.3160705,106.683929 42.5530088,107 41.7573593,107 L5.24264069,107 C4.44699122,107 3.68392948,106.683929 3.12132034,106.12132 L0,103 L0,103 L0,44 C0.629514607,42.7409708 0.629514607,41.2590292 0,40 L0,40 L0,40 C-1.09108455e-15,38.3431458 1.34314575,37 3,37 Z" id="path-8"></path>
    </defs>
    <g id="Page-1" stroke="none" stroke-width="1" fill="none" fill-rule="evenodd">
        <g id="画板" transform="translate(-35.000000, -84.000000)">
            <g id="编组" transform="translate(35.000000, 41.000000)">
                <mask id="mask-2" fill="white">
                    <use xlink:href="#path-1"></use>
                </mask>
                <path stroke="#0025FF" stroke-width="8" d="M80.5,-4 L600.937356,-4 C647.24046,-4 684.81165,33.4695771 684.937048,79.7725111 L686.499686,656.772511 C686.625325,703.16426 649.119232,740.874053 602.727483,740.999692 C602.613739,740.999949 602.613739,740.999949 602.499994,741 L80.5,741 C34.108081,741 -3.5,703.391919 -3.5,657 L-3.5,80 C-3.5,33.608081 34.108081,-4 80.5,-4 Z"></path>
                <g id="Group-3" mask="url(#mask-2)">
                    <g transform="translate(6.000000, 48.000000)">
                        <circle id="Oval" stroke="#0025FF" stroke-width="4.28571429" fill="#FFFFFF" cx="50" cy="50" r="52.1428571"></circle>
                        <path d="M51,92.5 L51,98 L49,98 L49,92.5 L51,92.5 Z M73.3660254,88.4711432 L74.8660254,91.0692194 L73.1339746,92.0692194 L71.6339746,89.4711432 L73.3660254,88.4711432 Z M26.6339746,88.4711432 L28.3660254,89.4711432 L26.8660254,92.0692194 L25.1339746,91.0692194 L26.6339746,88.4711432 Z M89.4711432,71.6339746 L92.0692194,73.1339746 L91.0692194,74.8660254 L88.4711432,73.3660254 L89.4711432,71.6339746 Z M10.5288568,71.6339746 L11.5288568,73.3660254 L8.93078062,74.8660254 L7.93078062,73.1339746 L10.5288568,71.6339746 Z M50.5,10.75 L51.035,45.542 L66.4129809,19.613707 L67.7120191,20.363707 L52.7126254,47.0603022 C53.5042345,47.791128 54,48.8376679 54,50 C54,51.8045185 52.8050809,53.3299488 51.1633323,53.8282012 L51.25,59.5 L48.75,59.5 L48.835,53.961 L46.7700318,57.636293 L44.6049682,56.386293 L46.896107,52.5232649 C46.3358614,51.8349393 46,50.956692 46,50 C46,48.1523565 47.2527147,46.5973001 48.9551283,46.1378467 L49.5,10.75 L50.5,10.75 Z M98,49 L98,51 L92.5,51 L92.5,49 L98,49 Z M7.5,49 L7.5,51 L2,51 L2,49 L7.5,49 Z M91.0692194,25.1339746 L92.0692194,26.8660254 L89.4711432,28.3660254 L88.4711432,26.6339746 L91.0692194,25.1339746 Z M8.93078062,25.1339746 L11.5288568,26.6339746 L10.5288568,28.3660254 L7.93078062,26.8660254 L8.93078062,25.1339746 Z M73.1339746,7.93078062 L74.8660254,8.93078062 L73.3660254,11.5288568 L71.6339746,10.5288568 L73.1339746,7.93078062 Z M26.8660254,7.93078062 L28.3660254,10.5288568 L26.6339746,11.5288568 L25.1339746,8.93078062 L26.8660254,7.93078062 Z M51,2 L51,7.5 L49,7.5 L49,2 L51,2 Z" id="Combined-Shape" stroke="none" fill="#0025FF"></path>
                    </g>
                </g>
                <rect id="Rectangle" fill="#0025FF" mask="url(#mask-2)" x="0" y="370" width="684" height="367"></rect>
                <path d="M292,445 L388,445 L388,458 C388,471.202602 390.614384,484.274521 395.692308,496.461538 L401.076923,509.384615 C403.62593,515.502231 400.733,522.527917 394.615385,525.076923 C393.152943,525.686274 391.584312,526 390,526 L290.465144,526 C283.837727,526 278.465144,520.627417 278.465144,514 C278.465144,512.32098 278.81749,510.660646 279.499405,509.126338 L283.381155,500.392402 C289.063777,487.606502 292,473.770389 292,459.778555 L292,445 L292,445 Z" id="Rectangle" fill="url(#linearGradient-3)" mask="url(#mask-2)"></path>
                <path d="M129,138 C118.50659,138 110,146.50659 110,157 L110,431 C110,441.49341 118.50659,450 129,450 L556,450 C566.49341,450 575,441.49341 575,431 L575,157 C575,146.50659 566.49341,138 556,138 L129,138 Z" id="Rectangle" stroke="#0025FF" stroke-width="8" fill="#FFFFFF" mask="url(#mask-2)"></path>
                <path d="M254,169 C259.522847,169 264,173.477153 264,179 L264,242 C264,247.522847 259.522847,252 254,252 L191,252 C185.477153,252 181,247.522847 181,242 L181,179 C181,173.477153 185.477153,169 191,169 L254,169 Z M434,225 C436.209139,225 438,226.790861 438,229 L438,244 C438,246.209139 436.209139,248 434,248 L275,248 C272.790861,248 271,246.209139 271,244 L271,229 C271,226.790861 272.790861,225 275,225 L434,225 Z M494,197 C496.209139,197 498,198.790861 498,201 L498,216 C498,218.209139 496.209139,220 494,220 L275,220 C272.790861,220 271,218.209139 271,216 L271,201 C271,198.790861 272.790861,197 275,197 L494,197 Z M494,169 C496.209139,169 498,170.790861 498,173 L498,188 C498,190.209139 496.209139,192 494,192 L275,192 C272.790861,192 271,190.209139 271,188 L271,173 C271,170.790861 272.790861,169 275,169 L494,169 Z" id="Combined-Shape" fill="#E4EBFF" mask="url(#mask-2)"></path>
                <path d="M254,272 C259.522847,272 264,276.477153 264,282 L264,345 C264,350.522847 259.522847,355 254,355 L191,355 C185.477153,355 181,350.522847 181,345 L181,282 C181,276.477153 185.477153,272 191,272 L254,272 Z M434,328 C436.209139,328 438,329.790861 438,332 L438,347 C438,349.209139 436.209139,351 434,351 L275,351 C272.790861,351 271,349.209139 271,347 L271,332 C271,329.790861 272.790861,328 275,328 L434,328 Z M494,300 C496.209139,300 498,301.790861 498,304 L498,319 C498,321.209139 496.209139,323 494,323 L275,323 C272.790861,323 271,321.209139 271,319 L271,304 C271,301.790861 272.790861,300 275,300 L494,300 Z M494,272 C496.209139,272 498,273.790861 498,276 L498,291 C498,293.209139 496.209139,295 494,295 L275,295 C272.790861,295 271,293.209139 271,291 L271,276 C271,273.790861 272.790861,272 275,272 L494,272 Z" id="Combined-Shape-Copy" fill="#E4EBFF" mask="url(#mask-2)"></path>
                <g id="Rectangle" mask="url(#mask-2)">
                    <use fill="black" fill-opacity="1" filter="url(#filter-5)" xlink:href="#path-4"></use>
                    <use fill="#FFFFFF" fill-rule="evenodd" xlink:href="#path-4"></use>
                </g>
                <g id="Rectangle" mask="url(#mask-2)">
                    <use fill="black" fill-opacity="1" filter="url(#filter-7)" xlink:href="#path-6"></use>
                    <use fill="#FFFFFF" fill-rule="evenodd" xlink:href="#path-6"></use>
                </g>
                <rect id="Rectangle" fill="#FFFFFF" mask="url(#mask-2)" x="515" y="550" width="43" height="62" rx="21.5"></rect>
                <g id="Path-43" mask="url(#mask-2)">
                    <g transform="translate(77.000000, 496.000000)">
                        <path d="M24.5,10.9193914 L24.5,36.8300781 C24.5,37.6585052 23.8284271,38.3300781 23,38.3300781 C22.1715729,38.3300781 21.5,37.6585052 21.5,36.8300781 L21.5,9.08060861 L38.0273034,0.663364686 C38.7655067,0.287402735 39.6687161,0.581057369 40.0446781,1.31926067 C40.42064,2.05746397 40.1269854,2.96067336 39.3887821,3.33663531 L24.5,10.9193914 Z" id="Path-44" stroke="none" fill="#FFFFFF" fill-rule="nonzero"></path>
                        <mask id="mask-9" fill="white">
                            <use xlink:href="#path-8"></use>
                        </mask>
                        <use id="Mask" stroke="none" fill="#C70707" fill-rule="evenodd" xlink:href="#path-8"></use>
                        <text id="加-多-宝" stroke="none" fill="none" mask="url(#mask-9)" font-family="PingFangSC-Regular, PingFang SC" font-size="16" font-weight="normal" line-spacing="16">
                            <tspan x="15" y="66" fill="#FFFFFF">加</tspan>
                            <tspan x="32.152" y="67.232" font-family="Helvetica" fill="#FFFFFF"></tspan>
                            <tspan x="15" y="82" fill="#FFFFFF">多</tspan>
                            <tspan x="32.152" y="83.232" font-family="Helvetica" fill="#FFFFFF"></tspan>
                            <tspan x="15" y="98" fill="#FFFFFF">宝</tspan>
                        </text>
                        <rect id="Rectangle" stroke="none" fill="#FFFFFF" fill-rule="evenodd" mask="url(#mask-9)" x="0" y="37" width="47" height="3"></rect>
                    </g>
                </g>
                <path d="M209.584002,737.312265 C209.584002,736.775521 237.731093,678.508426 242.247868,671.282214 C246.764643,664.056003 267.190046,641.066006 270.314111,637.559058 C273.438176,634.052109 277.62485,623.345131 284.915452,615.172565 C292.206055,607 300.248184,597.895833 304.678822,589.671856 C309.10946,581.447878 311.100671,573.176913 296.054687,580.210646 C286.024032,584.899801 277.44384,592.585883 270.314111,603.268892 C266.148691,606.300194 264.065982,605.261098 264.065982,600.151605 C264.065982,595.042111 267.190046,588.807536 273.438176,581.447878 C284.53473,564.27911 290.083008,554.265969 290.083008,551.408455 C290.083008,547.122185 288.934365,539.469295 281.607762,543.29574 C274.281159,547.122185 264.065982,576 259.85124,575.116997 C255.636498,574.233994 278.438176,534.116997 278.438176,526.116997 C278.438176,518.116997 272.182419,516.454398 264.85124,523.218201 C257.520061,529.982004 248.214964,555.866388 244.018555,564.319115 C241.42572,569.541801 236.206728,568.693548 240.358398,560.346774 C244.510069,552 260.012392,526.600248 253.726562,521.268646 C247.440733,515.937043 239.667969,528.116997 235.48262,539.982004 C232.692388,547.892009 227.98171,556.240063 221.350586,565.026166 C223.972449,558.19492 225.723101,551.841714 226.602539,545.966547 C227.347215,540.991674 229.774414,530.881614 224.598455,530.881614 C219.348134,530.881614 214.842756,544.21504 211.973633,552 C209.10451,559.78496 202.601562,592.232113 199.15164,604.827536 C195.701717,617.42296 195.051536,629.729307 193.036222,642.216724 C191.692679,650.541668 175.347272,682.240182 144,737.312265 C187.722668,737.670094 209.584002,737.670094 209.584002,737.312265 Z" id="Path-75" fill="#FEE500" mask="url(#mask-2)"></path>
                <path d="M479.308258,737.312265 C479.308258,736.775521 451.161168,678.508426 446.644393,671.282214 C442.127618,664.056003 421.702214,641.066006 418.57815,637.559058 C415.454085,634.052109 411.267411,623.345131 403.976808,615.172565 C396.686206,607 388.644076,597.895833 384.213438,589.671856 C379.7828,581.447878 377.79159,573.176913 392.837573,580.210646 C402.868229,584.899801 411.448421,592.585883 418.57815,603.268892 C422.743569,606.300194 424.826279,605.261098 424.826279,600.151605 C424.826279,595.042111 421.702214,588.807536 415.454085,581.447878 C404.35753,564.27911 398.809253,554.265969 398.809253,551.408455 C398.809253,547.122185 399.957896,539.469295 407.284499,543.29574 C414.611101,547.122185 424.826279,576 429.041021,575.116997 C433.255762,574.233994 410.454085,534.116997 410.454085,526.116997 C410.454085,518.116997 416.709842,516.454398 424.041021,523.218201 C431.3722,529.982004 440.677297,555.866388 444.873706,564.319115 C447.466541,569.541801 452.685533,568.693548 448.533862,560.346774 C444.382192,552 428.879869,526.600248 435.165698,521.268646 C441.451527,515.937043 449.224292,528.116997 453.40964,539.982004 C456.199873,547.892009 460.910551,556.240063 467.541675,565.026166 C464.919811,558.19492 463.16916,551.841714 462.289722,545.966547 C461.545046,540.991674 459.117847,530.881614 464.293806,530.881614 C469.544126,530.881614 474.049505,544.21504 476.918628,552 C479.787751,559.78496 486.290698,592.232113 489.740621,604.827536 C493.190544,617.42296 493.840724,629.729307 495.856039,642.216724 C497.199581,650.541668 513.544989,682.240182 544.892261,737.312265 C501.169593,737.670094 479.308258,737.670094 479.308258,737.312265 Z" id="Path-75" fill="#FEE500" mask="url(#mask-2)"></path>
                <g id="Group" mask="url(#mask-2)">
                    <g transform="translate(430.000000, 394.000000)">
                        <rect id="Rectangle" fill="#FFC127" fill-rule="evenodd" x="0" y="0" width="54" height="53"></rect>
                        <text id="加班" fill="none" font-family="PingFangSC-Regular, PingFang SC" font-size="20" font-weight="normal">
                            <tspan x="7" y="32" fill="#FFFFFF">加班</tspan>
                        </text>
                    </g>
                </g>
            </g>
        </g>
    </g>
</svg>