<?xml version="1.0" encoding="UTF-8"?>
<svg width="549px" height="488px" viewBox="0 0 549 488" version="1.1" xmlns="http://www.w3.org/2000/svg" xmlns:xlink="http://www.w3.org/1999/xlink">
    <!-- Generator: Sketch 57 (83077) - https://sketch.com -->
    <title>Group 4</title>
    <desc>Created with Sketch.</desc>
    <defs>
        <linearGradient x1="57.746718%" y1="53.3390126%" x2="42.6048461%" y2="50%" id="linearGradient-1">
            <stop stop-color="#FEE500" offset="0%"></stop>
            <stop stop-color="#FFFFFF" offset="100%"></stop>
        </linearGradient>
    </defs>
    <g id="Page-1" stroke="none" stroke-width="1" fill="none" fill-rule="evenodd">
        <g id="工作台-周报-2-1" transform="translate(-113.000000, -718.000000)">
            <g id="1" transform="translate(40.000000, 368.000000)">
                <g id="Group-4" transform="translate(345.500000, 593.500000) scale(-1, 1) translate(-345.500000, -593.500000) translate(73.000000, 350.000000)">
                    <path d="M156,370 L77,370 L77,383 L87,383 L87,484 L95,484 L95,383 L135,383 L135,484 L143,484 L143,383 L156,383 L156,370 Z" id="Combined-Shape" stroke="#0025FF" stroke-width="4" fill="#FFFFFF"></path>
                    <path d="M543,192 L223,192 L223,205 L281,205 L281,484.087891 L289,484.087891 L289,205 L460,205 L460,484.087891 L468,484.087891 L468,205 L543,205 L543,192 Z" id="Combined-Shape-Copy" stroke="#0025FF" stroke-width="4" fill="#FFFFFF"></path>
                    <path d="M218.333333,256 C269.364583,264.179687 296.697917,275.1875 300.333333,289.023437 C303.96875,302.859375 283.302083,356.859375 238.333333,451.023437 C273.672686,467.731109 288.339353,477.064443 282.333333,479.023437 C276.327314,480.982432 249.382951,480.982432 201.500247,479.023437 C202.055638,419.690104 206.41613,375.023437 214.581722,345.023437 C222.747314,315.023437 192.220074,303.634115 123,310.855469 L218.333333,256 Z" id="Path-12" stroke="#0025FF" stroke-width="8" fill="#FFFFFF"></path>
                    <path d="M222.883654,153.265465 L212.037039,153.265465 C181.666518,118.194745 146.234244,104.445107 105.740216,112.016553 C44.9991742,123.373721 0,177.284774 0,238.058594 C0,278.574474 12.6124061,312.826425 37.8372184,340.814448 C59.2433313,358.372405 85.493202,367.151384 116.586831,367.151384 C163.227273,367.151384 209.867716,353.271107 219.087338,356.550513 C228.306961,359.829919 245.364768,365.032905 253.648117,376.260845 C259.17035,383.746139 278.743719,406.894369 312.368224,445.705533 L350.398437,483.728002 L397.171035,483.728002 C398.827889,483.728002 400.171035,482.384856 400.171035,480.728002 C400.171035,479.544245 399.474938,478.471166 398.394009,477.988598 L377.990242,468.87958 L377.990242,468.87958 C343.281076,393.550067 324.480277,353.831092 321.587846,349.722654 C317.249201,343.559997 291.474368,299.988052 283.662828,295.426026 C275.851288,290.864001 225.595307,269.296701 222.883654,269.296701 C220.172,269.296701 221.798992,230.33151 216.918016,215.900428 C213.664031,206.279707 209.62077,193.876716 204.788233,178.691455 L206.541073,175.138765 L222.883654,172.016127 L222.883654,153.265465 Z" id="Path-7" stroke="#0025FF" stroke-width="8" fill="#FFFFFF"></path>
                    <path d="M406.484971,34 C408.401777,53.9102814 409.409913,73.8205629 409.509378,93.7308443 L409.864289,91.0343641 C419.198195,92.2658044 424,99.3400162 424,110.703125 L424,190 L416,190 L416,110.703125 C416,103.378844 413.914912,99.9501734 409.51256,99.0794662 L409.517544,97 C409.517544,118 408.506687,139 406.484971,160 L402.484971,160 L402.484971,34 L406.484971,34 Z" id="Combined-Shape" fill="#0025FF"></path>
                    <path d="M133,212.604837 C146.847786,214.066588 156.54948,241.309527 162.105083,294.333655 C167.660685,347.357782 176.759789,386.008027 189.402396,410.284388 C189.402396,415.103223 186.871519,416.307931 181.809766,413.898514 C174.217135,410.284388 173.706105,423.925277 177.757935,423.925277 C181.809766,423.925277 207.444627,431.467064 210.354788,413.898514 C213.264948,396.329964 230.039661,278.716224 225.738555,255.849358 C221.437449,232.982491 213.809022,165.610608 182.894427,144" id="Path-9" stroke="#0025FF" stroke-width="8" fill="#FFFFFF" stroke-linecap="round"></path>
                    <path d="M223,236.03125 C213.803922,244.347005 203.470588,250.138672 192,253.40625 C180.529412,256.673828 169.179802,259.030599 157.951172,260.476563" id="Path-10" stroke="#0025FF" stroke-width="8"></path>
                    <path d="M163.7,290 C131.9,327.244792 100,349.889323 68,357.933594" id="Path-11" stroke="#0025FF" stroke-width="8"></path>
                    <path d="M246.5,119 C252.851275,119 258,125.491871 258,133.5 C258,134.006588 257.979396,134.507108 257.939188,135.000301 L258,135 C277.329966,135 293,147.312169 293,162.5 C293,177.687831 277.329966,190 258,190 C238.670034,190 223,177.687831 223,162.5 C223,153.663746 228.304138,145.800873 236.547235,140.769734 C235.563436,138.632334 235,136.149131 235,133.5 C235,125.491871 240.148725,119 246.5,119 Z" id="Combined-Shape" stroke="#0025FF" stroke-width="8" fill="#FFFFFF"></path>
                    <circle id="Oval" stroke="#0025FF" stroke-width="4" cx="256" cy="154" r="10"></circle>
                    <circle id="Oval-Copy" stroke="#0025FF" stroke-width="4" cx="261" cy="178" r="10"></circle>
                    <path d="M262.25,110.82639 C252.25,108.787328 248.916667,110.521703 252.25,116.029515 C255.583333,121.537328 258.916667,124.291234 262.25,124.291234 L263.25,129.291234 C263.25,129.827692 263.25,130.79514 263.25,132.193578 C263.25,134.291234 259.25,139.109593 263.25,139.109593 C265.916667,139.109593 270.711589,139.109593 277.634766,139.109593 L277.634766,149.052953 C277.634766,151.871963 277.634766,153.281468 277.634766,153.281468 C277.634766,153.281468 286.865234,154.822484 282.25,158.291234 C279.173177,160.603734 277.634766,162.733942 277.634766,164.681859 C274.548828,165.754776 273.777344,167.957901 275.320312,171.291234 C276.863281,174.624567 276.863281,180.527489 275.320313,189 L282.25,191.918919 L302.25,190.549046 C308.705729,188.729239 311.933594,186.657878 311.933594,184.334961 C311.933594,180.850586 316.761719,180.457956 316.761719,173.848581 C316.761719,167.239206 323.558594,160 320.160156,158.291234 C316.761719,156.582468 316.761719,153.162328 316.761719,149.052953 C316.761719,144.943578 323.558594,152.779515 320.160156,143.535375 C316.761719,134.291234 320.25,135.095921 314.25,132.193578 C308.25,129.291234 308.46875,124.291234 305.359375,124.291234 C302.25,124.291234 300.865234,116.029515 289.25,116.029515 C281.50651,116.029515 274.50651,114.29514 268.25,110.82639 L262.25,110.82639 Z" id="Path-14" fill="#0025FF"></path>
                    <path d="M273.157143,82.14 C271.077133,83.5800072 269.077153,85.0599924 267.157143,86.58 C265.237134,88.1000076 263.317153,89.6999916 261.397143,91.38 C259.477134,93.0600084 257.517153,94.8499905 255.517143,96.75 C253.517133,98.6500095 251.397154,100.699989 249.157143,102.9 C250.637151,102.579998 252.197135,102.330001 253.837143,102.15 C255.477151,101.969999 257.097135,101.87 258.697143,101.85 C260.297151,101.83 261.837136,101.879999 263.317143,102 C264.797151,102.120001 266.117137,102.299999 267.277143,102.54 L264.517143,107.4 C262.117131,107.199999 260.027152,107.050001 258.247143,106.95 C256.467134,106.85 254.84715,106.82 253.387143,106.86 C251.927136,106.9 250.577149,107.009999 249.337143,107.19 C248.097137,107.370001 246.81715,107.639998 245.497143,108 L242.617143,104.22 C242.137141,103.579997 241.937143,103.070002 242.017143,102.69 C242.097144,102.309998 242.537139,101.860003 243.337143,101.34 C245.657155,99.7799922 247.917132,98.1500085 250.117143,96.45 C252.317154,94.7499915 254.337134,93.0900081 256.177143,91.47 C258.017152,89.8499919 259.617136,88.3100073 260.977143,86.85 C262.33715,85.3899927 263.37714,84.1200054 264.097143,83.04 C262.457135,83.3600016 260.867151,83.6099991 259.327143,83.79 C257.787135,83.9700009 256.32715,84.0799998 254.947143,84.12 C253.567136,84.1600002 252.297149,84.1400004 251.137143,84.06 C249.977137,83.9799996 248.997147,83.8200012 248.197143,83.58 L250.537143,78.48 C254.377162,79.080003 258.077125,79.3400004 261.637143,79.26 C265.197161,79.1799996 268.917124,78.740004 272.797143,77.94 L274.477143,77.94 L273.157143,82.14 Z" id="Z" fill="#0C2FFF" transform="translate(258.238572, 92.970000) scale(-1, 1) translate(-258.238572, -92.970000) "></path>
                    <path d="M250.644871,48.5233533 C249.333405,49.3885073 248.072399,50.2776801 246.861815,51.1908982 C245.65123,52.1041163 244.440665,53.0653842 243.230081,54.0747305 C242.019496,55.0840769 240.78371,56.1594953 239.522685,57.301018 C238.26166,58.4425406 236.924994,59.674165 235.512646,60.9959281 C236.445804,60.8036717 237.429389,60.6534736 238.46343,60.5453293 C239.49747,60.4371851 240.518885,60.3771058 241.527705,60.3650898 C242.536525,60.3530738 243.5075,60.3831134 244.440659,60.4552096 C245.373817,60.5273057 246.206081,60.6354484 246.937476,60.7796407 L245.19727,63.699521 C243.68404,63.5793607 242.366288,63.4892418 241.243976,63.4291617 C240.121664,63.3690815 239.100249,63.3510578 238.1797,63.3750898 C237.259152,63.3991219 236.407973,63.465209 235.626137,63.5733533 C234.844302,63.6814975 234.037258,63.8437115 233.204982,64.06 L231.389115,61.788982 C231.086469,61.4044691 230.960368,61.098065 231.010809,60.8697605 C231.06125,60.6414559 231.338671,60.3710994 231.843081,60.0586826 C233.30587,59.1214324 234.730807,58.1421408 236.117935,57.1207784 C237.505062,56.0994161 238.778679,55.1021007 239.938822,54.1288024 C241.098965,53.1555041 242.10777,52.2302838 242.965267,51.3531138 C243.822764,50.4759437 244.478487,49.7129374 244.932456,49.0640719 C243.898415,49.2563283 242.895915,49.4065264 241.924926,49.5146707 C240.953937,49.6228149 240.033402,49.6889021 239.163295,49.7129341 C238.293188,49.7369662 237.492449,49.7249503 236.761054,49.6768862 C236.02966,49.6288221 235.411767,49.5326953 234.907357,49.388503 L236.382749,46.3244311 C238.803917,46.684912 241.136778,46.841118 243.381403,46.7930539 C245.626027,46.7449898 247.971499,46.4806411 250.417887,46 L251.477143,46 L250.644871,48.5233533 Z" id="Z-Copy" fill="#0C2FFF" transform="translate(241.238572, 55.030000) scale(-1, 1) translate(-241.238572, -55.030000) "></path>
                    <path d="M191.05131,56.2658683 C190.380298,56.6998824 189.735103,57.1459458 189.115707,57.6040719 C188.496311,58.0621979 187.876924,58.5444286 187.257528,59.0507784 C186.638132,59.5571283 186.005842,60.0966239 185.360637,60.6692814 C184.715433,61.241939 184.031527,61.8597971 183.308898,62.5228743 C183.786349,62.4264267 184.289601,62.3510781 184.818668,62.2968263 C185.347736,62.2425746 185.870344,62.2124352 186.386507,62.2064072 C186.90267,62.2003792 187.39947,62.2154489 187.876921,62.2516168 C188.354373,62.2877846 188.780201,62.3420356 189.154419,62.4143713 L188.264042,63.8791617 C187.489797,63.8188819 186.815569,63.7736728 186.241337,63.7435329 C185.667105,63.7133931 185.144497,63.7043512 184.673498,63.7164072 C184.202499,63.7284631 183.766993,63.7616165 183.366966,63.8158683 C182.96694,63.87012 182.554015,63.9514965 182.12818,64.06 L181.199091,62.9207186 C181.044242,62.7278234 180.979722,62.5741123 181.00553,62.4595808 C181.031339,62.3450493 181.173281,62.2094219 181.431363,62.0526946 C182.1798,61.5825126 182.90887,61.0912401 183.618595,60.5788623 C184.328319,60.0664845 184.979966,59.5661701 185.573554,59.0779042 C186.167142,58.5896383 186.683297,58.1254912 187.122036,57.6854491 C187.560775,57.245407 187.896276,56.8626364 188.12855,56.5371257 C187.599482,56.6335733 187.086553,56.7089219 186.589745,56.7631737 C186.092938,56.8174254 185.621946,56.8505788 185.176755,56.8626347 C184.731564,56.8746907 184.321866,56.8686628 183.947647,56.8445509 C183.573429,56.820439 183.257283,56.7722159 182.999202,56.6998802 L183.754087,55.1627545 C184.992879,55.3435937 186.186489,55.4219562 187.334952,55.3978443 C188.483416,55.3737324 189.683478,55.241119 190.935174,55 L191.477143,55 L191.05131,56.2658683 Z" id="Z-Copy-2" fill="#0C2FFF" transform="translate(186.238572, 59.530000) scale(-1, 1) translate(-186.238572, -59.530000) "></path>
                    <path d="M163.010666,29.4055888 C162.275609,29.8875074 161.568833,30.3828052 160.890318,30.891497 C160.211803,31.4001888 159.533298,31.9356459 158.854784,32.4978842 C158.176269,33.0601226 157.483628,33.6591652 156.776842,34.2950299 C156.070056,34.9308947 155.320874,35.6169491 154.529273,36.3532136 C155.052295,36.2461206 155.60358,36.1624554 156.183145,36.1022156 C156.762709,36.0419757 157.335198,36.0085097 157.900627,36.0018164 C158.466056,35.9951231 159.010273,36.0118561 159.533295,36.052016 C160.056317,36.0921758 160.522789,36.1524148 160.932725,36.2327345 L159.957365,37.8592016 C159.109221,37.7922685 158.370641,37.7420694 157.741601,37.7086028 C157.112561,37.6751362 156.540072,37.6650964 156.024118,37.678483 C155.508164,37.6918697 155.031091,37.7286823 154.592883,37.7889222 C154.154676,37.849162 153.702339,37.9395204 153.23586,38.06 L152.218093,36.7949701 C152.048464,36.580784 151.977787,36.4101071 152.006058,36.2829341 C152.03433,36.1557612 152.18982,36.0051639 152.472535,35.8311377 C153.292407,35.3090593 154.091064,34.7635624 154.868529,34.1946307 C155.645994,33.6256991 156.359837,33.0701624 157.01008,32.528004 C157.660324,31.9858456 158.225744,31.4704682 158.706359,30.9818563 C159.186974,30.4932444 159.554497,30.0682254 159.80894,29.7067864 C159.229376,29.8138794 158.667489,29.8975446 158.123263,29.9577844 C157.579038,30.0180243 157.063092,30.0548369 156.575409,30.0682236 C156.087726,30.0816102 155.638924,30.074917 155.228988,30.0481437 C154.819052,30.0213705 154.472732,29.9678248 154.190017,29.887505 L155.016953,28.1807186 C156.373983,28.381518 157.681518,28.4685297 158.939598,28.4417565 C160.197677,28.4149832 161.51228,28.2677325 162.883446,28 L163.477143,28 L163.010666,29.4055888 Z" id="Z-Copy-3" fill="#0C2FFF" transform="translate(157.738572, 33.030000) scale(-1, 1) translate(-157.738572, -33.030000) "></path>
                    <polygon id="Path-16" fill="url(#linearGradient-1)" points="403 33.203125 403 159.332031 329 188 329 0"></polygon>
                </g>
            </g>
        </g>
    </g>
</svg>