<?xml version="1.0" encoding="UTF-8"?>
<svg width="512px" height="186px" viewBox="0 0 512 186" version="1.1" xmlns="http://www.w3.org/2000/svg" xmlns:xlink="http://www.w3.org/1999/xlink">
    <!-- Generator: Sketch 57 (83077) - https://sketch.com -->
    <title>八面玲珑</title>
    <desc>Created with Sketch.</desc>
    <g id="Page-1" stroke="none" stroke-width="1" fill="none" fill-rule="evenodd">
        <g id="画板" transform="translate(-4.000000, -452.000000)">
            <g id="八面玲珑" transform="translate(0.000000, 455.555556)">
                <text font-family="PingFangSC-Regular, PingFang SC" font-size="100" font-weight="normal" fill="#0025FF">
                    <tspan x="0" y="171">八面玲珑</tspan>
                </text>
                <path d="M35.953125,38 C36.2656266,44.406282 38.4531047,47.6874992 42.515625,47.84375 C46.8906469,47.84375 49.0000008,44.5625328 48.84375,38 C49.0000008,31.2812164 46.8906469,27.921875 42.515625,27.921875 C38.4531047,28.0781258 36.2656266,31.4374672 35.953125,38 Z M27.046875,46.90625 L27.046875,9.640625 L35.953125,9.640625 L35.953125,26.28125 L36.1875,26.28125 C38.2187602,23.6249867 40.8749836,22.2187508 44.15625,22.0625 C52.9062937,22.5312523 57.5937469,27.8436992 58.21875,38 C57.5937469,48.00005 53.2969148,53.1562484 45.328125,53.46875 C41.1093539,53.46875 37.9843852,51.9062656 35.953125,48.78125 L35.953125,50.890625 C35.7968742,51.8281297 35.71875,52.5312477 35.71875,53 L26.8125,53 L26.8125,50.1875 C26.9687508,48.781243 27.046875,47.6875039 27.046875,46.90625 Z M81.1875,38.9375 C74.781218,38.4687477 71.578125,40.031232 71.578125,43.625 C71.7343758,46.2812633 73.2187359,47.6874992 76.03125,47.84375 C79.625018,47.84375 81.3437508,44.8750297 81.1875,38.9375 Z M72.984375,31.4375 L64.3125,31.4375 C64.4687508,27.9999828 65.8749867,25.5000078 68.53125,23.9375 C70.5625102,22.6874937 73.5312305,22.0625 77.4375,22.0625 C85.8750422,22.0625 90.09375,25.8124625 90.09375,33.3125 L90.09375,49.71875 C90.09375,50.0312516 90.1718742,50.3437484 90.328125,50.65625 C90.4843758,51.2812531 90.5625,52.0625 90.5625,53 L82.59375,53 C82.2812484,51.593743 82.125,50.2656312 82.125,49.015625 C80.2499906,52.1406406 77.1250219,53.6250008 72.75,53.46875 C66.343718,53.1562484 63.0625008,50.2656523 62.90625,44.796875 C63.2187516,40.2656023 65.4062297,37.0625 69.46875,35.1875 C72.2812641,34.0937445 76.187475,33.546875 81.1875,33.546875 L81.1875,30.734375 C80.8749984,28.3906133 79.4687625,27.1406258 76.96875,26.984375 C74.6249883,27.1406258 73.2968766,28.6249859 72.984375,31.4375 Z M123.375,22.765625 L123.375,26.515625 L123.609375,26.515625 C125.640635,23.5468602 128.68748,22.0625 132.75,22.0625 C137.593774,22.5312523 140.796867,24.4062336 142.359375,27.6875 C144.859387,23.7812305 148.296853,21.9062492 152.671875,22.0625 C157.203148,22.5312523 160.406241,24.4062336 162.28125,27.6875 C162.906253,29.2500078 163.21875,31.6718586 163.21875,34.953125 L163.21875,53 L154.078125,53 L154.078125,34.953125 C154.078125,30.2656016 152.281268,27.921875 148.6875,27.921875 C145.562484,28.2343766 143.765627,30.5781031 143.296875,34.953125 L143.296875,53 L134.390625,53 L134.390625,34.953125 C134.234374,30.2656016 132.437517,27.921875 129,27.921875 C125.562483,28.2343766 123.765626,30.5781031 123.609375,34.953125 L123.609375,53 L114.46875,53 L114.46875,22.765625 L123.375,22.765625 Z M170.71875,22.765625 L179.859375,22.765625 L179.859375,53 L170.71875,53 L170.71875,22.765625 Z M170.484375,9.640625 L180.09375,9.640625 L180.09375,17.375 L170.484375,17.375 L170.484375,9.640625 Z M204.234375,38.9375 C197.828093,38.4687477 194.625,40.031232 194.625,43.625 C194.781251,46.2812633 196.265611,47.6874992 199.078125,47.84375 C202.671893,47.84375 204.390626,44.8750297 204.234375,38.9375 Z M196.03125,31.4375 L187.359375,31.4375 C187.515626,27.9999828 188.921862,25.5000078 191.578125,23.9375 C193.609385,22.6874937 196.578105,22.0625 200.484375,22.0625 C208.921917,22.0625 213.140625,25.8124625 213.140625,33.3125 L213.140625,49.71875 C213.140625,50.0312516 213.218749,50.3437484 213.375,50.65625 C213.531251,51.2812531 213.609375,52.0625 213.609375,53 L205.640625,53 C205.328123,51.593743 205.171875,50.2656312 205.171875,49.015625 C203.296866,52.1406406 200.171897,53.6250008 195.796875,53.46875 C189.390593,53.1562484 186.109376,50.2656523 185.953125,44.796875 C186.265627,40.2656023 188.453105,37.0625 192.515625,35.1875 C195.328139,34.0937445 199.23435,33.546875 204.234375,33.546875 L204.234375,30.734375 C203.921873,28.3906133 202.515637,27.1406258 200.015625,26.984375 C197.671863,27.1406258 196.343752,28.6249859 196.03125,31.4375 Z M229.78125,22.765625 L229.78125,26.28125 L230.015625,26.515625 C231.734384,23.5468602 234.781228,22.0625 239.15625,22.0625 C244.625027,22.6875031 247.906245,24.8749812 249,28.625 C249.468752,30.5000094 249.703125,32.0625 249.703125,33.3125 L249.703125,53 L240.5625,53 L240.5625,34.953125 C240.5625,30.2656016 238.765643,27.921875 235.171875,27.921875 C232.046859,28.2343766 230.250002,30.5781031 229.78125,34.953125 L229.78125,53 L220.875,53 L220.875,22.765625 L229.78125,22.765625 Z M273.84375,9.640625 L282.984375,9.640625 L282.984375,53 L273.84375,53 L273.84375,9.640625 Z M290.484375,22.765625 L299.625,22.765625 L299.625,53 L290.484375,53 L290.484375,22.765625 Z M316.265625,22.765625 L316.265625,26.28125 L316.5,26.515625 C318.218759,23.5468602 321.265603,22.0625 325.640625,22.0625 C331.109402,22.6875031 334.39062,24.8749812 335.484375,28.625 C335.953127,30.5000094 336.1875,32.0625 336.1875,33.3125 L336.1875,53 L327.046875,53 L327.046875,34.953125 C327.046875,30.2656016 325.250018,27.921875 321.65625,27.921875 C318.531234,28.2343766 316.734377,30.5781031 316.265625,34.953125 L316.265625,53 L307.359375,53 L307.359375,22.765625 L316.265625,22.765625 Z M352.125,37.53125 C352.125,43.4687797 354.078105,46.4375 357.984375,46.4375 C361.890645,46.4375 363.84375,43.4687797 363.84375,37.53125 C363.84375,31.124968 361.890645,27.921875 357.984375,27.921875 C354.078105,27.921875 352.125,31.124968 352.125,37.53125 Z M372.984375,22.765625 L372.984375,50.1875 C373.296877,59.8750484 368.375051,64.6406258 358.21875,64.484375 C348.999954,64.484375 344.312501,61.2031578 344.15625,54.640625 L352.59375,54.640625 C352.906252,57.1406375 354.624984,58.390625 357.75,58.390625 C362.750025,58.390625 364.781255,55.0312836 363.84375,48.3125 C362.124991,50.9687633 359.31252,52.296875 355.40625,52.296875 C347.749962,51.8281227 343.609378,46.8281727 342.984375,37.296875 C343.609378,27.6093266 347.828086,22.5312523 355.640625,22.0625 C359.703145,22.0625 362.437493,23.4687359 363.84375,26.28125 L363.84375,22.765625 L372.984375,22.765625 Z M396.890625,9.640625 L406.03125,9.640625 L406.03125,53 L396.890625,53 L396.890625,9.640625 Z M443.765625,38 C443.296873,48.00005 438.06255,53.1562484 428.0625,53.46875 C418.06245,53.1562484 412.828127,48.00005 412.359375,38 C412.828127,27.8436992 418.06245,22.5312523 428.0625,22.0625 C438.06255,22.5312523 443.296873,27.8436992 443.765625,38 Z M421.734375,38 C421.734375,44.5625328 423.843729,47.84375 428.0625,47.84375 C432.437522,47.84375 434.625,44.5625328 434.625,38 C434.781251,31.2812164 432.593773,27.921875 428.0625,27.921875 C423.843729,27.921875 421.734375,31.2812164 421.734375,38 Z M459.234375,22.765625 L459.234375,26.28125 L459.46875,26.515625 C461.187509,23.5468602 464.234353,22.0625 468.609375,22.0625 C474.078152,22.6875031 477.35937,24.8749812 478.453125,28.625 C478.921877,30.5000094 479.15625,32.0625 479.15625,33.3125 L479.15625,53 L470.015625,53 L470.015625,34.953125 C470.015625,30.2656016 468.218768,27.921875 464.625,27.921875 C461.499984,28.2343766 459.703127,30.5781031 459.234375,34.953125 L459.234375,53 L450.328125,53 L450.328125,22.765625 L459.234375,22.765625 Z M495.09375,37.53125 C495.09375,43.4687797 497.046855,46.4375 500.953125,46.4375 C504.859395,46.4375 506.8125,43.4687797 506.8125,37.53125 C506.8125,31.124968 504.859395,27.921875 500.953125,27.921875 C497.046855,27.921875 495.09375,31.124968 495.09375,37.53125 Z M515.953125,22.765625 L515.953125,50.1875 C516.265627,59.8750484 511.343801,64.6406258 501.1875,64.484375 C491.968704,64.484375 487.281251,61.2031578 487.125,54.640625 L495.5625,54.640625 C495.875002,57.1406375 497.593734,58.390625 500.71875,58.390625 C505.718775,58.390625 507.750005,55.0312836 506.8125,48.3125 C505.093741,50.9687633 502.28127,52.296875 498.375,52.296875 C490.718712,51.8281227 486.578128,46.8281727 485.953125,37.296875 C486.578128,27.6093266 490.796836,22.5312523 498.609375,22.0625 C502.671895,22.0625 505.406243,23.4687359 506.8125,26.28125 L506.8125,22.765625 L515.953125,22.765625 Z" id="ba-mian-ling-long" fill="#0025FF"></path>
                <path d="M89,4 L66,4" id="Path-6" stroke="#0025FF" stroke-width="8"></path>
                <path d="M200,11 L189,0" id="Path-6-Copy" stroke="#0025FF" stroke-width="8"></path>
                <path d="M295,11 L305,0" id="Path-6-Copy-2" stroke="#0025FF" stroke-width="8"></path>
                <path d="M430,11 L440,0" id="Path-6-Copy-3" stroke="#0025FF" stroke-width="8"></path>
            </g>
        </g>
    </g>
</svg>