<?xml version="1.0" encoding="UTF-8"?>
<svg width="442px" height="183px" viewBox="0 0 442 183" version="1.1" xmlns="http://www.w3.org/2000/svg" xmlns:xlink="http://www.w3.org/1999/xlink">
    <!-- Generator: Sketch 57 (83077) - https://sketch.com -->
    <title>兢兢业业@2x</title>
    <desc>Created with Sketch.</desc>
    <g id="Page-1" stroke="none" stroke-width="1" fill="none" fill-rule="evenodd">
        <g id="画板" transform="translate(-4.000000, -820.000000)" fill="#0025FF">
            <g id="兢兢业业" transform="translate(0.000000, 820.222222)">
                <text id="兢兢业业3123" font-family="PingFangSC-Regular, PingFang SC" font-size="100" font-weight="normal">
                    <tspan x="0" y="171">兢兢业业</tspan>
                </text>
                <path d="M25.390625,9.640625 L34.53125,9.640625 L34.53125,38.703125 C34.3749992,48.2344227 29.5312977,53.1562484 20,53.46875 C10.7812039,53.6250008 5.93750234,48.8594234 5.46875,39.171875 L14.84375,39.171875 C14.84375,44.4844016 16.5624828,47.140625 20,47.140625 C23.1250156,47.140625 24.9218727,44.4844016 25.390625,39.171875 L25.390625,9.640625 Z M42.03125,22.765625 L51.171875,22.765625 L51.171875,53 L42.03125,53 L42.03125,22.765625 Z M36.796875,9.640625 L55.40625,9.640625 L55.40625,17.375 L36.796875,17.375 L36.796875,9.640625 Z M67.8125,22.765625 L67.8125,26.28125 L68.046875,26.515625 C69.7656336,23.5468602 72.8124781,22.0625 77.1875,22.0625 C82.6562773,22.6875031 85.9374945,24.8749812 87.03125,28.625 C87.5000023,30.5000094 87.734375,32.0625 87.734375,33.3125 L87.734375,53 L78.59375,53 L78.59375,34.953125 C78.59375,30.2656016 76.796893,27.921875 73.203125,27.921875 C70.0781094,28.2343766 68.2812523,30.5781031 67.8125,34.953125 L67.8125,53 L58.90625,53 L58.90625,22.765625 L67.8125,22.765625 Z M103.671875,37.53125 C103.671875,43.4687797 105.62498,46.4375 109.53125,46.4375 C113.43752,46.4375 115.390625,43.4687797 115.390625,37.53125 C115.390625,31.124968 113.43752,27.921875 109.53125,27.921875 C105.62498,27.921875 103.671875,31.124968 103.671875,37.53125 Z M124.53125,22.765625 L124.53125,50.1875 C124.843752,59.8750484 119.921926,64.6406258 109.765625,64.484375 C100.546829,64.484375 95.8593758,61.2031578 95.703125,54.640625 L104.140625,54.640625 C104.453127,57.1406375 106.171859,58.390625 109.296875,58.390625 C114.2969,58.390625 116.32813,55.0312836 115.390625,48.3125 C113.671866,50.9687633 110.859395,52.296875 106.953125,52.296875 C99.2968367,51.8281227 95.1562531,46.8281727 94.53125,37.296875 C95.1562531,27.6093266 99.3749609,22.5312523 107.1875,22.0625 C111.25002,22.0625 113.984368,23.4687359 115.390625,26.28125 L115.390625,22.765625 L124.53125,22.765625 Z M165.078125,9.640625 L174.21875,9.640625 L174.21875,38.703125 C174.062499,48.2344227 169.218798,53.1562484 159.6875,53.46875 C150.468704,53.6250008 145.625002,48.8594234 145.15625,39.171875 L154.53125,39.171875 C154.53125,44.4844016 156.249983,47.140625 159.6875,47.140625 C162.812516,47.140625 164.609373,44.4844016 165.078125,39.171875 L165.078125,9.640625 Z M181.71875,22.765625 L190.859375,22.765625 L190.859375,53 L181.71875,53 L181.71875,22.765625 Z M176.484375,9.640625 L197.09375,9.640625 L197.09375,17.375 L176.484375,17.375 L176.484375,9.640625 Z M335.004563,0.535533906 L346.042058,11.5730288 L340.573029,17.0420578 L329.535534,6.00456292 L335.004563,0.535533906 Z M424.551438,0.535533906 L435.588933,11.5730288 L430.119904,17.0420578 L419.082409,6.00456292 L424.551438,0.535533906 Z M207.5,22.765625 L207.5,26.28125 L207.734375,26.515625 C209.453134,23.5468602 212.499978,22.0625 216.875,22.0625 C222.343777,22.6875031 225.624995,24.8749812 226.71875,28.625 C227.187502,30.5000094 227.421875,32.0625 227.421875,33.3125 L227.421875,53 L218.28125,53 L218.28125,34.953125 C218.28125,30.2656016 216.484393,27.921875 212.890625,27.921875 C209.765609,28.2343766 207.968752,30.5781031 207.5,34.953125 L207.5,53 L198.59375,53 L198.59375,22.765625 L207.5,22.765625 Z M243.359375,37.53125 C243.359375,43.4687797 245.31248,46.4375 249.21875,46.4375 C253.12502,46.4375 255.078125,43.4687797 255.078125,37.53125 C255.078125,31.124968 253.12502,27.921875 249.21875,27.921875 C245.31248,27.921875 243.359375,31.124968 243.359375,37.53125 Z M264.21875,22.765625 L264.21875,50.1875 C264.531252,59.8750484 259.609426,64.6406258 249.453125,64.484375 C240.234329,64.484375 235.546876,61.2031578 235.390625,54.640625 L243.828125,54.640625 C244.140627,57.1406375 245.859359,58.390625 248.984375,58.390625 C253.9844,58.390625 256.01563,55.0312836 255.078125,48.3125 C253.359366,50.9687633 250.546895,52.296875 246.640625,52.296875 C238.984337,51.8281227 234.843753,46.8281727 234.21875,37.296875 C234.843753,27.6093266 239.062461,22.5312523 246.875,22.0625 C250.93752,22.0625 253.671868,23.4687359 255.078125,26.28125 L255.078125,22.765625 L264.21875,22.765625 Z M299.84375,53 L299.84375,38.9375 L285.078125,9.640625 L296.09375,9.640625 L305,29.5625 L314.140625,9.640625 L323.515625,9.640625 L308.984375,38.9375 L308.984375,53 L299.84375,53 Z M355.859375,40.34375 L335.9375,40.34375 C335.781249,45.5000258 337.499982,48.0000008 341.09375,47.84375 C344.062515,48.0000008 345.937496,46.7500133 346.71875,44.09375 L354.921875,44.09375 C354.140621,50.3437812 349.531292,53.46875 341.09375,53.46875 C331.406202,53.6250008 326.640624,48.4688023 326.796875,38 C327.265627,27.8436992 332.031205,22.5312523 341.09375,22.0625 C347.343781,22.0625 351.640613,24.4062266 353.984375,29.09375 C354.92188,30.8125086 355.468749,32.6093656 355.625,34.484375 C355.781251,36.3593844 355.859375,38.3124898 355.859375,40.34375 Z M335.9375,34.25 L346.484375,34.25 C346.484375,30.0312289 344.687518,27.921875 341.09375,27.921875 C337.812484,27.921875 336.093751,30.0312289 335.9375,34.25 Z M389.609375,53 L389.609375,38.9375 L374.84375,9.640625 L385.859375,9.640625 L394.765625,29.5625 L403.90625,9.640625 L413.28125,9.640625 L398.75,38.9375 L398.75,53 L389.609375,53 Z M445.625,40.34375 L425.703125,40.34375 C425.546874,45.5000258 427.265607,48.0000008 430.859375,47.84375 C433.82814,48.0000008 435.703121,46.7500133 436.484375,44.09375 L444.6875,44.09375 C443.906246,50.3437812 439.296917,53.46875 430.859375,53.46875 C421.171827,53.6250008 416.406249,48.4688023 416.5625,38 C417.031252,27.8436992 421.79683,22.5312523 430.859375,22.0625 C437.109406,22.0625 441.406238,24.4062266 443.75,29.09375 C444.687505,30.8125086 445.234374,32.6093656 445.390625,34.484375 C445.546876,36.3593844 445.625,38.3124898 445.625,40.34375 Z M425.703125,34.25 L436.25,34.25 C436.25,30.0312289 434.453143,27.921875 430.859375,27.921875 C427.578109,27.921875 425.859376,30.0312289 425.703125,34.25 Z" id="Jing-Jing-Ye-Ye"></path>
            </g>
        </g>
    </g>
</svg>