<?xml version="1.0" encoding="UTF-8"?>
<svg width="397px" height="111px" viewBox="0 0 397 111" version="1.1" xmlns="http://www.w3.org/2000/svg" xmlns:xlink="http://www.w3.org/1999/xlink">
    <!-- Generator: Sketch 57 (83077) - https://sketch.com -->
    <title>努力@2x</title>
    <desc>Created with Sketch.</desc>
    <g id="Page-1" stroke="none" stroke-width="1" fill="none" fill-rule="evenodd">
        <g id="画板" transform="translate(0.000000, -625.000000)">
            <g id="努力" transform="translate(0.000000, 619.444444)">
                <text font-family="PingFangSC-Regular, PingFang SC" font-size="100" font-weight="normal" fill="#0025FF">
                    <tspan x="210" y="106">努力</tspan>
                </text>
                <path d="M15.484375,41.609375 L15.484375,47.46875 L15.875,47.859375 C18.7395977,42.9114336 23.8176719,40.4375 31.109375,40.4375 C40.2240039,41.4791719 45.6926992,45.1249687 47.515625,51.375 C48.2968789,54.5000156 48.6875,57.1041563 48.6875,59.1875 L48.6875,92 L33.453125,92 L33.453125,61.921875 C33.453125,54.1093359 30.4583633,50.203125 24.46875,50.203125 C19.2603906,50.7239609 16.2656289,54.6301719 15.484375,61.921875 L15.484375,92 L0.640625,92 L0.640625,41.609375 L15.484375,41.609375 Z M94.78125,92 L94,85.75 C90.6145664,90.4375234 85.5364922,92.78125 78.765625,92.78125 C69.6509961,91.9999961 64.0520937,88.4844063 61.96875,82.234375 C61.4479141,80.1510313 61.1875,77.5468906 61.1875,74.421875 L61.1875,41.609375 L76.03125,41.609375 L76.03125,72.078125 C76.291668,79.6302461 79.2864297,83.40625 85.015625,83.40625 C90.7448203,82.8854141 93.739582,79.1094102 94,72.078125 L94,41.609375 L109.234375,41.609375 L109.234375,83.015625 C109.234375,84.0572969 109.364582,85.4895742 109.625,87.3125 L109.625,92 L94.78125,92 Z M149.859375,19.734375 L165.09375,19.734375 L165.09375,92 L149.859375,92 L149.859375,19.734375 Z M177.59375,41.609375 L192.828125,41.609375 L192.828125,92 L177.59375,92 L177.59375,41.609375 Z" id="nu-li" fill="#0025FF"></path>
                <path d="M175,10 L189.799706,27.9335937" id="Path-8-Copy" stroke="#0025FF" stroke-width="12"></path>
                <polyline id="Path-8" stroke="#0025FF" stroke-width="12" points="67.1679687 10 85.7997056 27.9335937 104.333984 11.4375"></polyline>
            </g>
        </g>
    </g>
</svg>