<?xml version="1.0" encoding="UTF-8"?>
<svg width="250px" height="95px" viewBox="0 0 250 95" version="1.1" xmlns="http://www.w3.org/2000/svg" xmlns:xlink="http://www.w3.org/1999/xlink">
    <!-- Generator: Sketch 57 (83077) - https://sketch.com -->
    <title>拼@2x</title>
    <desc>Created with Sketch.</desc>
    <g id="Page-1" stroke="none" stroke-width="1" fill="none" fill-rule="evenodd">
        <g id="画板" transform="translate(0.000000, -22.000000)" fill="#0025FF">
            <g id="拼">
                <text font-family="PingFangSC-Regular, PingFang SC" font-size="100" font-weight="normal">
                    <tspan x="154" y="106">拼</tspan>
                </text>
                <path d="M15.53125,42.609375 L15.921875,48.46875 L16.3125,48.46875 C19.6979336,44.0416445 24.1249727,41.697918 29.59375,41.4375 C44.1771562,42.2187539 51.9895781,51.072832 53.03125,68 C51.9895781,84.66675 44.8281914,93.2604141 31.546875,93.78125 C24.2551719,93.78125 19.1770977,91.1771094 16.3125,85.96875 L15.921875,85.96875 L15.921875,111.359375 L1.078125,111.359375 L1.078125,48.078125 C0.817707031,45.7343633 0.6875,43.9114648 0.6875,42.609375 L15.53125,42.609375 Z M15.921875,68 C16.4427109,78.6771367 20.0885078,84.145832 26.859375,84.40625 C34.1510781,84.40625 37.666668,78.9375547 37.40625,68 C37.666668,56.8020273 34.1510781,51.203125 26.859375,51.203125 C20.0885078,51.463543 16.4427109,57.0624453 15.921875,68 Z M63.1875,42.609375 L78.421875,42.609375 L78.421875,93 L63.1875,93 L63.1875,42.609375 Z M56.796875,22.734375 L84.8125,22.734375 L84.8125,33.625 L56.796875,33.625 L56.796875,22.734375 Z M106.15625,42.609375 L106.15625,48.46875 L106.546875,48.859375 C109.411473,43.9114336 114.489547,41.4375 121.78125,41.4375 C130.895879,42.4791719 136.364574,46.1249688 138.1875,52.375 C138.968754,55.5000156 139.359375,58.1041563 139.359375,60.1875 L139.359375,93 L124.125,93 L124.125,62.921875 C124.125,55.1093359 121.130238,51.203125 115.140625,51.203125 C109.932266,51.7239609 106.937504,55.6301719 106.15625,62.921875 L106.15625,93 L91.3125,93 L91.3125,42.609375 L106.15625,42.609375 Z" id="pin"></path>
            </g>
        </g>
    </g>
</svg>