<?xml version="1.0" encoding="UTF-8"?>
<svg width="377px" height="189px" viewBox="0 0 377 189" version="1.1" xmlns="http://www.w3.org/2000/svg" xmlns:xlink="http://www.w3.org/1999/xlink">
    <!-- Generator: Sketch 57 (83077) - https://sketch.com -->
    <title>日理万机</title>
    <desc>Created with Sketch.</desc>
    <g id="Page-1" stroke="none" stroke-width="1" fill="none" fill-rule="evenodd">
        <g id="画板" transform="translate(-20.000000, -1004.000000)">
            <g id="日理万机" transform="translate(0.000000, 1007.111111)">
                <text font-family="PingFangSC-Regular, PingFang SC" font-size="100" font-weight="normal" fill="#0025FF">
                    <tspan x="0" y="174">日理万机</tspan>
                </text>
                <path d="M37.28125,25.765625 L45.484375,25.765625 L45.484375,31.390625 L45.71875,31.390625 C47.4375086,27.1718539 50.8749742,25.2187484 56.03125,25.53125 L56.03125,33.5 L52.046875,33.5 C49.8593641,33.9687523 48.3750039,34.6718703 47.59375,35.609375 C47.1249977,36.7031305 46.7343766,38.1874906 46.421875,40.0625 L46.421875,56 L37.515625,56 L37.515625,29.75 C37.3593742,28.0312414 37.28125,26.7031297 37.28125,25.765625 Z M60.953125,25.765625 L70.09375,25.765625 L70.09375,56 L60.953125,56 L60.953125,25.765625 Z M134.234375,12.640625 L143.375,12.640625 L143.375,56 L134.234375,56 L134.234375,12.640625 Z M150.875,25.765625 L160.015625,25.765625 L160.015625,56 L150.875,56 L150.875,25.765625 Z M214.046875,25.765625 L220.375,48.5 L220.609375,48.5 L226.46875,25.765625 L235.375,25.765625 L224.828125,56 L215.21875,56 L209.125,33.5 L208.890625,33.5 L202.5625,56 L192.953125,56 L182.875,25.765625 L192.25,25.765625 L197.875,48.5 L198.109375,48.5 L204.4375,25.765625 L214.046875,25.765625 Z M256.234375,41.9375 C249.828093,41.4687477 246.625,43.031232 246.625,46.625 C246.781251,49.2812633 248.265611,50.6874992 251.078125,50.84375 C254.671893,50.84375 256.390626,47.8750297 256.234375,41.9375 Z M248.03125,34.4375 L239.359375,34.4375 C239.515626,30.9999828 240.921862,28.5000078 243.578125,26.9375 C245.609385,25.6874938 248.578105,25.0625 252.484375,25.0625 C260.921917,25.0625 265.140625,28.8124625 265.140625,36.3125 L265.140625,52.71875 C265.140625,53.0312516 265.218749,53.3437484 265.375,53.65625 C265.531251,54.2812531 265.609375,55.0625 265.609375,56 L257.640625,56 C257.328123,54.593743 257.171875,53.2656312 257.171875,52.015625 C255.296866,55.1406406 252.171897,56.6250008 247.796875,56.46875 C241.390593,56.1562484 238.109376,53.2656523 237.953125,47.796875 C238.265627,43.2656023 240.453105,40.0625 244.515625,38.1875 C247.328139,37.0937445 251.23435,36.546875 256.234375,36.546875 L256.234375,33.734375 C255.921873,31.3906133 254.515638,30.1406258 252.015625,29.984375 C249.671863,30.1406258 248.343752,31.6249859 248.03125,34.4375 Z M281.78125,25.765625 L281.78125,29.28125 L282.015625,29.515625 C283.734384,26.5468602 286.781228,25.0625 291.15625,25.0625 C296.625027,25.6875031 299.906245,27.8749812 301,31.625 C301.468752,33.5000094 301.703125,35.0625 301.703125,36.3125 L301.703125,56 L292.5625,56 L292.5625,37.953125 C292.5625,33.2656016 290.765643,30.921875 287.171875,30.921875 C284.046859,31.2343766 282.250002,33.5781031 281.78125,37.953125 L281.78125,56 L272.875,56 L272.875,25.765625 L281.78125,25.765625 Z M352.984375,25.765625 L352.984375,56.703125 C353.296877,64.0469117 350.015659,67.5625016 343.140625,67.25 C342.04687,67.25 341.031255,67.1718758 340.09375,67.015625 L340.09375,61.390625 C342.437512,61.2343742 343.765623,59.9843867 344.078125,57.640625 L344.078125,25.765625 L352.984375,25.765625 Z M343.609375,12.640625 L353.21875,12.640625 L353.21875,20.375 L343.609375,20.375 L343.609375,12.640625 Z M360.484375,25.765625 L369.625,25.765625 L369.625,56 L360.484375,56 L360.484375,25.765625 Z M357.25,12.640625 L373.859375,12.640625 L373.859375,20.375 L357.25,20.375 L357.25,12.640625 Z" id="ri-li-wan-ji" fill="#0025FF"></path>
                <polyline id="Path-8" stroke="#0025FF" stroke-width="8" points="144.704102 -2.26485497e-13 154.853524 10.933594 165.279787 -2.26609476e-13"></polyline>
                <path d="M67,14 L58,4" id="Path-6-Copy" stroke="#0025FF" stroke-width="8"></path>
                <path d="M252,14 L242,4" id="Path-6-Copy-2" stroke="#0025FF" stroke-width="8"></path>
            </g>
        </g>
    </g>
</svg>