<?xml version="1.0" encoding="UTF-8"?>
<svg width="290px" height="172px" viewBox="0 0 290 172" version="1.1" xmlns="http://www.w3.org/2000/svg" xmlns:xlink="http://www.w3.org/1999/xlink">
    <!-- Generator: Sketch 57 (83077) - https://sketch.com -->
    <title>夜猫子@2x</title>
    <desc>Created with Sketch.</desc>
    <g id="Page-1" stroke="none" stroke-width="1" fill="none" fill-rule="evenodd">
        <g id="画板" transform="translate(-4.000000, -199.000000)">
            <g id="夜猫子" transform="translate(0.000000, 201.777778)">
                <text font-family="PingFangSC-Regular, PingFang SC" font-size="100" font-weight="normal" fill="#0025FF">
                    <tspan x="0" y="158">夜猫子</tspan>
                </text>
                <path d="M22.109375,38.625 L28.90625,17.765625 L37.8125,17.765625 L22.578125,59.015625 L13.671875,59.015625 L17.421875,48 L5.9375,17.765625 L15.546875,17.765625 L22.109375,38.625 Z M69.921875,35.34375 L50,35.34375 C49.8437492,40.5000258 51.562482,43.0000008 55.15625,42.84375 C58.1250148,43.0000008 59.9999961,41.7500133 60.78125,39.09375 L68.984375,39.09375 C68.2031211,45.3437813 63.5937922,48.46875 55.15625,48.46875 C45.4687016,48.6250008 40.7031242,43.4688023 40.859375,33 C41.3281273,22.8436992 46.0937047,17.5312523 55.15625,17.0625 C61.4062812,17.0625 65.7031133,19.4062266 68.046875,24.09375 C68.9843797,25.8125086 69.5312492,27.6093656 69.6875,29.484375 C69.8437508,31.3593844 69.921875,33.3124898 69.921875,35.34375 Z M50,29.25 L60.546875,29.25 C60.546875,25.0312289 58.750018,22.921875 55.15625,22.921875 C51.8749836,22.921875 50.1562508,25.0312289 50,29.25 Z M101.09375,17.765625 L101.09375,21.515625 L101.328125,21.515625 C103.359385,18.5468602 106.40623,17.0625 110.46875,17.0625 C115.312524,17.5312523 118.515617,19.4062336 120.078125,22.6875 C122.578137,18.7812305 126.015603,16.9062492 130.390625,17.0625 C134.921898,17.5312523 138.124991,19.4062336 140,22.6875 C140.625003,24.2500078 140.9375,26.6718586 140.9375,29.953125 L140.9375,48 L131.796875,48 L131.796875,29.953125 C131.796875,25.2656016 130.000018,22.921875 126.40625,22.921875 C123.281234,23.2343766 121.484377,25.5781031 121.015625,29.953125 L121.015625,48 L112.109375,48 L112.109375,29.953125 C111.953124,25.2656016 110.156267,22.921875 106.71875,22.921875 C103.281233,23.2343766 101.484376,25.5781031 101.328125,29.953125 L101.328125,48 L92.1875,48 L92.1875,17.765625 L101.09375,17.765625 Z M165.3125,33.9375 C158.906218,33.4687477 155.703125,35.031232 155.703125,38.625 C155.859376,41.2812633 157.343736,42.6874992 160.15625,42.84375 C163.750018,42.84375 165.468751,39.8750297 165.3125,33.9375 Z M157.109375,26.4375 L148.4375,26.4375 C148.593751,22.9999828 149.999987,20.5000078 152.65625,18.9375 C154.68751,17.6874937 157.65623,17.0625 161.5625,17.0625 C170.000042,17.0625 174.21875,20.8124625 174.21875,28.3125 L174.21875,44.71875 C174.21875,45.0312516 174.296874,45.3437484 174.453125,45.65625 C174.609376,46.2812531 174.6875,47.0625 174.6875,48 L166.71875,48 C166.406248,46.593743 166.25,45.2656313 166.25,44.015625 C164.374991,47.1406406 161.250022,48.6250008 156.875,48.46875 C150.468718,48.1562484 147.187501,45.2656523 147.03125,39.796875 C147.343752,35.2656023 149.53123,32.0625 153.59375,30.1875 C156.406264,29.0937445 160.312475,28.546875 165.3125,28.546875 L165.3125,25.734375 C164.999998,23.3906133 163.593762,22.1406258 161.09375,21.984375 C158.749988,22.1406258 157.421877,23.6249859 157.109375,26.4375 Z M211.953125,33 C211.484373,43.00005 206.25005,48.1562484 196.25,48.46875 C186.24995,48.1562484 181.015627,43.00005 180.546875,33 C181.015627,22.8436992 186.24995,17.5312523 196.25,17.0625 C206.25005,17.5312523 211.484373,22.8436992 211.953125,33 Z M189.921875,33 C189.921875,39.5625328 192.031229,42.84375 196.25,42.84375 C200.625022,42.84375 202.8125,39.5625328 202.8125,33 C202.968751,26.2812164 200.781273,22.921875 196.25,22.921875 C192.031229,22.921875 189.921875,26.2812164 189.921875,33 Z M259.0625,48 L233.28125,48 L233.28125,41.90625 L249.921875,23.859375 L233.75,23.859375 L233.75,17.765625 L258.59375,17.765625 L258.59375,23.859375 L241.953125,41.90625 L259.0625,41.90625 L259.0625,48 Z M264.921875,17.765625 L274.0625,17.765625 L274.0625,48 L264.921875,48 L264.921875,17.765625 Z" id="ye-mao-zi" fill="#0025FF"></path>
                <path d="M57,11.7622447 L47,0" id="Path-6" stroke="#0025FF" stroke-width="8"></path>
                <path d="M173,7.76224468 L149,7.76224468" id="Path-6-Copy" stroke="#0025FF" stroke-width="8"></path>
                <path d="M279,7.76224468 L258,7.76224468" id="Path-6-Copy-2" stroke="#0025FF" stroke-width="8"></path>
            </g>
        </g>
    </g>
</svg>